<?xml version="1.0" encoding="utf-8"?>
<svg version="1.1" xmlns:xlink="http://www.w3.org/1999/xlink" width="526px" height="70px" xmlns="http://www.w3.org/2000/svg">
  <g transform="matrix(1 0 0 1 -697 -245 )">
    <path d="M 698 280  A 34 34 0 0 1 732 246 L 1188 246  A 34 34 0 0 1 1222 280 A 34 34 0 0 1 1188 314 L 732 314  A 34 34 0 0 1 698 280 Z " fill-rule="nonzero" fill="#ffffff" stroke="none" />
    <path d="M 697.5 280  A 34.5 34.5 0 0 1 732 245.5 L 1188 245.5  A 34.5 34.5 0 0 1 1222.5 280 A 34.5 34.5 0 0 1 1188 314.5 L 732 314.5  A 34.5 34.5 0 0 1 697.5 280 Z " stroke-width="1" stroke="#8c8c8c" fill="none" stroke-opacity="0.352941176470588" />
  </g>
</svg>