<?xml version="1.0" encoding="utf-8"?>
<svg version="1.1" xmlns:xlink="http://www.w3.org/1999/xlink" width="526px" height="70px" viewBox="697 385  526 70" xmlns="http://www.w3.org/2000/svg">
  <path d="M 698 420  A 34 34 0 0 1 732 386 L 1188 386  A 34 34 0 0 1 1222 420 A 34 34 0 0 1 1188 454 L 732 454  A 34 34 0 0 1 698 420 Z " fill-rule="nonzero" fill="#f0f0f0" stroke="none" />
  <path d="M 697.5 420  A 34.5 34.5 0 0 1 732 385.5 L 1188 385.5  A 34.5 34.5 0 0 1 1222.5 420 A 34.5 34.5 0 0 1 1188 454.5 L 732 454.5  A 34.5 34.5 0 0 1 697.5 420 Z " stroke-width="1" stroke="#8c8c8c" fill="none" stroke-opacity="0.352941176470588" />
</svg>