<?xml version="1.0" encoding="utf-8"?>
<svg version="1.1" xmlns:xlink="http://www.w3.org/1999/xlink" width="83px" height="32px" xmlns="http://www.w3.org/2000/svg">
  <g transform="matrix(1 0 0 1 -22 -161 )">
    <path d="M 23 166  A 4 4 0 0 1 27 162 L 100 162  A 4 4 0 0 1 104 166 L 104 188  A 4 4 0 0 1 100 192 L 27 192  A 4 4 0 0 1 23 188 L 23 166  Z " fill-rule="nonzero" fill="#ffffff" stroke="none" fill-opacity="0.996078431372549" />
    <path d="M 22.5 166  A 4.5 4.5 0 0 1 27 161.5 L 100 161.5  A 4.5 4.5 0 0 1 104.5 166 L 104.5 188  A 4.5 4.5 0 0 1 100 192.5 L 27 192.5  A 4.5 4.5 0 0 1 22.5 188 L 22.5 166  Z " stroke-width="1" stroke="#a408bf" fill="none" stroke-opacity="0.996078431372549" />
  </g>
</svg>