<?xml version="1.0" encoding="utf-8"?>
<svg version="1.1" xmlns:xlink="http://www.w3.org/1999/xlink" width="83px" height="32px" xmlns="http://www.w3.org/2000/svg">
  <g transform="matrix(1 0 0 1 -22 -161 )">
    <path d="M 24 166  A 3 3 0 0 1 27 163 L 100 163  A 3 3 0 0 1 103 166 L 103 188  A 3 3 0 0 1 100 191 L 27 191  A 3 3 0 0 1 24 188 L 24 166  Z " fill-rule="nonzero" fill="#ffffff" stroke="none" fill-opacity="0.996078431372549" />
    <path d="M 23 166  A 4 4 0 0 1 27 162 L 100 162  A 4 4 0 0 1 104 166 L 104 188  A 4 4 0 0 1 100 192 L 27 192  A 4 4 0 0 1 23 188 L 23 166  Z " stroke-width="2" stroke="#a408bf" fill="none" stroke-opacity="0.996078431372549" />
  </g>
</svg>