<?xml version="1.0" encoding="utf-8"?>
<svg version="1.1" xmlns:xlink="http://www.w3.org/1999/xlink" width="11px" height="11px" viewBox="1783 287  11 11" xmlns="http://www.w3.org/2000/svg">
  <path d="M 1784 291  A 3 3 0 0 1 1787 288 L 1790 288  A 3 3 0 0 1 1793 291 L 1793 294  A 3 3 0 0 1 1790 297 L 1787 297  A 3 3 0 0 1 1784 294 L 1784 291  Z " fill-rule="nonzero" fill="#ffffff" stroke="none" />
  <path d="M 1783.5 291  A 3.5 3.5 0 0 1 1787 287.5 L 1790 287.5  A 3.5 3.5 0 0 1 1793.5 291 L 1793.5 294  A 3.5 3.5 0 0 1 1790 297.5 L 1787 297.5  A 3.5 3.5 0 0 1 1783.5 294 L 1783.5 291  Z " stroke-width="1" stroke="#8c8c8c" fill="none" stroke-opacity="0.803921568627451" />
  <path d="M 1785.35714285714 292.5  L 1787.71428571429 294.857142857143  " stroke-width="2.35714285714286" stroke="#8c8c8c" fill="none" stroke-opacity="0.803921568627451" />
  <path d="M 1787.71428571429 294.857142857143  L 1791.64285714286 289.357142857143  " stroke-width="2.35714285714286" stroke="#8c8c8c" fill="none" stroke-opacity="0.803921568627451" />
</svg>