<?xml version="1.0" encoding="utf-8"?>
<svg version="1.1" xmlns:xlink="http://www.w3.org/1999/xlink" width="11px" height="11px" viewBox="1783 318  11 11" xmlns="http://www.w3.org/2000/svg">
  <path d="M 1784 322  A 3 3 0 0 1 1787 319 L 1790 319  A 3 3 0 0 1 1793 322 L 1793 325  A 3 3 0 0 1 1790 328 L 1787 328  A 3 3 0 0 1 1784 325 L 1784 322  Z " fill-rule="nonzero" fill="#ffffff" stroke="none" />
  <path d="M 1783.5 322  A 3.5 3.5 0 0 1 1787 318.5 L 1790 318.5  A 3.5 3.5 0 0 1 1793.5 322 L 1793.5 325  A 3.5 3.5 0 0 1 1790 328.5 L 1787 328.5  A 3.5 3.5 0 0 1 1783.5 325 L 1783.5 322  Z " stroke-width="1" stroke="#8c8c8c" fill="none" stroke-opacity="0.737254901960784" />
  <path d="M 1785.35714285714 323.5  L 1787.71428571429 325.857142857143  " stroke-width="2.35714285714286" stroke="#8c8c8c" fill="none" stroke-opacity="0.737254901960784" />
  <path d="M 1787.71428571429 325.857142857143  L 1791.64285714286 320.357142857143  " stroke-width="2.35714285714286" stroke="#8c8c8c" fill="none" stroke-opacity="0.737254901960784" />
</svg>