<?xml version="1.0" encoding="utf-8"?>
<svg version="1.1" xmlns:xlink="http://www.w3.org/1999/xlink" width="11px" height="11px" viewBox="1783 348  11 11" xmlns="http://www.w3.org/2000/svg">
  <path d="M 1784 352  A 3 3 0 0 1 1787 349 L 1790 349  A 3 3 0 0 1 1793 352 L 1793 355  A 3 3 0 0 1 1790 358 L 1787 358  A 3 3 0 0 1 1784 355 L 1784 352  Z " fill-rule="nonzero" fill="#ffffff" stroke="none" />
  <path d="M 1783.5 352  A 3.5 3.5 0 0 1 1787 348.5 L 1790 348.5  A 3.5 3.5 0 0 1 1793.5 352 L 1793.5 355  A 3.5 3.5 0 0 1 1790 358.5 L 1787 358.5  A 3.5 3.5 0 0 1 1783.5 355 L 1783.5 352  Z " stroke-width="1" stroke="#8c8c8c" fill="none" stroke-opacity="0.737254901960784" />
</svg>