<?xml version="1.0" encoding="utf-8"?>
<svg version="1.1" xmlns:xlink="http://www.w3.org/1999/xlink" width="1537px" height="198px" xmlns="http://www.w3.org/2000/svg">
  <g transform="matrix(1 0 0 1 -158 -594 )">
    <path d="M 159 614  A 19 19 0 0 1 178 595 L 1675 595  A 19 19 0 0 1 1694 614 L 1694 772  A 19 19 0 0 1 1675 791 L 178 791  A 19 19 0 0 1 159 772 L 159 614  Z " fill-rule="nonzero" fill="#ffffff" stroke="none" />
    <path d="M 158.5 614  A 19.5 19.5 0 0 1 178 594.5 L 1675 594.5  A 19.5 19.5 0 0 1 1694.5 614 L 1694.5 772  A 19.5 19.5 0 0 1 1675 791.5 L 178 791.5  A 19.5 19.5 0 0 1 158.5 772 L 158.5 614  Z " stroke-width="1" stroke="#8c8c8c" fill="none" stroke-opacity="0.349019607843137" />
  </g>
</svg>