<?xml version="1.0" encoding="utf-8"?>
<svg version="1.1" xmlns:xlink="http://www.w3.org/1999/xlink" width="11px" height="11px" viewBox="1638 703  11 11" xmlns="http://www.w3.org/2000/svg">
  <path d="M 1639 707  A 3 3 0 0 1 1642 704 L 1645 704  A 3 3 0 0 1 1648 707 L 1648 710  A 3 3 0 0 1 1645 713 L 1642 713  A 3 3 0 0 1 1639 710 L 1639 707  Z " fill-rule="nonzero" fill="#f0f0f0" stroke="none" />
  <path d="M 1638.5 707  A 3.5 3.5 0 0 1 1642 703.5 L 1645 703.5  A 3.5 3.5 0 0 1 1648.5 707 L 1648.5 710  A 3.5 3.5 0 0 1 1645 713.5 L 1642 713.5  A 3.5 3.5 0 0 1 1638.5 710 L 1638.5 707  Z " stroke-width="1" stroke="#8c8c8c" fill="none" stroke-opacity="0.803921568627451" />
</svg>