<?xml version="1.0" encoding="utf-8"?>
<svg version="1.1" xmlns:xlink="http://www.w3.org/1999/xlink" width="584px" height="420px" xmlns="http://www.w3.org/2000/svg">
  <g transform="matrix(1 0 0 1 0 -15 )">
    <path d="M 1 25  A 9 9 0 0 1 10 16 L 574 16  A 9 9 0 0 1 583 25 L 583 425  A 9 9 0 0 1 574 434 L 10 434  A 9 9 0 0 1 1 425 L 1 25  Z " fill-rule="nonzero" fill="#d7d7d7" stroke="none" fill-opacity="0.0470588235294118" />
    <path d="M 0.5 25  A 9.5 9.5 0 0 1 10 15.5 L 574 15.5  A 9.5 9.5 0 0 1 583.5 25 L 583.5 425  A 9.5 9.5 0 0 1 574 434.5 L 10 434.5  A 9.5 9.5 0 0 1 0.5 425 L 0.5 25  Z " stroke-width="1" stroke="#8c8c8c" fill="none" stroke-opacity="0.247058823529412" />
  </g>
</svg>