<?xml version="1.0" encoding="utf-8"?>
<svg version="1.1" xmlns:xlink="http://www.w3.org/1999/xlink" width="12px" height="12px" viewBox="419 50  12 12" xmlns="http://www.w3.org/2000/svg">
  <path d="M 419.5 53  A 2.5 2.5 0 0 1 422 50.5 L 428 50.5  A 2.5 2.5 0 0 1 430.5 53 L 430.5 59  A 2.5 2.5 0 0 1 428 61.5 L 422 61.5  A 2.5 2.5 0 0 1 419.5 59 L 419.5 53  Z " fill-rule="nonzero" fill="#f0f0f0" stroke="none" />
  <path d="M 419.5 53  A 2.5 2.5 0 0 1 422 50.5 L 428 50.5  A 2.5 2.5 0 0 1 430.5 53 L 430.5 59  A 2.5 2.5 0 0 1 428 61.5 L 422 61.5  A 2.5 2.5 0 0 1 419.5 59 L 419.5 53  Z " stroke-width="1" stroke="#ff0361" fill="none" />
</svg>