<?xml version="1.0" encoding="utf-8"?>
<svg version="1.1" xmlns:xlink="http://www.w3.org/1999/xlink" width="12px" height="12px" viewBox="237 50  12 12" xmlns="http://www.w3.org/2000/svg">
  <path d="M 237.5 53  A 2.5 2.5 0 0 1 240 50.5 L 246 50.5  A 2.5 2.5 0 0 1 248.5 53 L 248.5 59  A 2.5 2.5 0 0 1 246 61.5 L 240 61.5  A 2.5 2.5 0 0 1 237.5 59 L 237.5 53  Z " fill-rule="nonzero" fill="#ffffff" stroke="none" />
  <path d="M 237.5 53  A 2.5 2.5 0 0 1 240 50.5 L 246 50.5  A 2.5 2.5 0 0 1 248.5 53 L 248.5 59  A 2.5 2.5 0 0 1 246 61.5 L 240 61.5  A 2.5 2.5 0 0 1 237.5 59 L 237.5 53  Z " stroke-width="1" stroke="#f60068" fill="none" />
  <path d="M 239.571428571429 56  L 242.142857142857 58.5714285714286  " stroke-width="2.57142857142857" stroke="#f60068" fill="none" />
  <path d="M 242.142857142857 58.5714285714286  L 246.428571428571 52.5714285714286  " stroke-width="2.57142857142857" stroke="#f60068" fill="none" />
</svg>