<?xml version="1.0" encoding="utf-8"?>
<svg version="1.1" xmlns:xlink="http://www.w3.org/1999/xlink" width="12px" height="12px" viewBox="419 50  12 12" xmlns="http://www.w3.org/2000/svg">
  <path d="M 419.5 53  A 2.5 2.5 0 0 1 422 50.5 L 428 50.5  A 2.5 2.5 0 0 1 430.5 53 L 430.5 59  A 2.5 2.5 0 0 1 428 61.5 L 422 61.5  A 2.5 2.5 0 0 1 419.5 59 L 419.5 53  Z " fill-rule="nonzero" fill="#ffffff" stroke="none" />
  <path d="M 419.5 53  A 2.5 2.5 0 0 1 422 50.5 L 428 50.5  A 2.5 2.5 0 0 1 430.5 53 L 430.5 59  A 2.5 2.5 0 0 1 428 61.5 L 422 61.5  A 2.5 2.5 0 0 1 419.5 59 L 419.5 53  Z " stroke-width="1" stroke="#f60068" fill="none" />
  <path d="M 421.571428571429 56  L 424.142857142857 58.5714285714286  " stroke-width="2.57142857142857" stroke="#f60068" fill="none" />
  <path d="M 424.142857142857 58.5714285714286  L 428.428571428571 52.5714285714286  " stroke-width="2.57142857142857" stroke="#f60068" fill="none" />
</svg>