<?xml version="1.0" encoding="utf-8"?>
<svg version="1.1" xmlns:xlink="http://www.w3.org/1999/xlink" width="12px" height="12px" viewBox="144 55  12 12" xmlns="http://www.w3.org/2000/svg">
  <path d="M 144.5 58  A 2.5 2.5 0 0 1 147 55.5 L 153 55.5  A 2.5 2.5 0 0 1 155.5 58 L 155.5 64  A 2.5 2.5 0 0 1 153 66.5 L 147 66.5  A 2.5 2.5 0 0 1 144.5 64 L 144.5 58  Z " fill-rule="nonzero" fill="#f0f0f0" stroke="none" />
  <path d="M 144.5 58  A 2.5 2.5 0 0 1 147 55.5 L 153 55.5  A 2.5 2.5 0 0 1 155.5 58 L 155.5 64  A 2.5 2.5 0 0 1 153 66.5 L 147 66.5  A 2.5 2.5 0 0 1 144.5 64 L 144.5 58  Z " stroke-width="1" stroke="#797979" fill="none" />
</svg>