<?xml version="1.0" encoding="utf-8"?>
<svg version="1.1" xmlns:xlink="http://www.w3.org/1999/xlink" width="328px" height="43px" viewBox="753 37  328 43" xmlns="http://www.w3.org/2000/svg">
  <path d="M 754 58.5  A 20.5 20.5 0 0 1 774.5 38 L 1059.5 38  A 20.5 20.5 0 0 1 1080 58.5 A 20.5 20.5 0 0 1 1059.5 79 L 774.5 79  A 20.5 20.5 0 0 1 754 58.5 Z " fill-rule="nonzero" fill="#ffffff" stroke="none" />
  <path d="M 753.5 58.5  A 21 21 0 0 1 774.5 37.5 L 1059.5 37.5  A 21 21 0 0 1 1080.5 58.5 A 21 21 0 0 1 1059.5 79.5 L 774.5 79.5  A 21 21 0 0 1 753.5 58.5 Z " stroke-width="1" stroke="#8c8c8c" fill="none" stroke-opacity="0.352941176470588" />
</svg>