<?xml version="1.0" encoding="utf-8"?>
<svg version="1.1" xmlns:xlink="http://www.w3.org/1999/xlink" width="1300px" height="599px" xmlns="http://www.w3.org/2000/svg">
  <g transform="matrix(1 0 0 1 0 -1 )">
    <path d="M 1 6  A 4 4 0 0 1 5 2 L 1295 2  A 4 4 0 0 1 1299 6 L 1299 595  A 4 4 0 0 1 1295 599 L 5 599  A 4 4 0 0 1 1 595 L 1 6  Z " fill-rule="nonzero" fill="#fffefe" stroke="none" fill-opacity="0.298039215686275" />
    <path d="M 0.5 6  A 4.5 4.5 0 0 1 5 1.5 L 1295 1.5  A 4.5 4.5 0 0 1 1299.5 6 L 1299.5 595  A 4.5 4.5 0 0 1 1295 599.5 L 5 599.5  A 4.5 4.5 0 0 1 0.5 595 L 0.5 6  Z " stroke-width="1" stroke="#8c8c8c" fill="none" stroke-opacity="0.352941176470588" />
  </g>
</svg>