<?xml version="1.0" encoding="utf-8"?>
<svg version="1.1" xmlns:xlink="http://www.w3.org/1999/xlink" width="11px" height="11px" viewBox="1273 478  11 11" xmlns="http://www.w3.org/2000/svg">
  <path d="M 1273.5 482  A 3.5 3.5 0 0 1 1277 478.5 L 1280 478.5  A 3.5 3.5 0 0 1 1283.5 482 L 1283.5 485  A 3.5 3.5 0 0 1 1280 488.5 L 1277 488.5  A 3.5 3.5 0 0 1 1273.5 485 L 1273.5 482  Z " fill-rule="nonzero" fill="#f0f0f0" stroke="none" />
  <path d="M 1273.5 482  A 3.5 3.5 0 0 1 1277 478.5 L 1280 478.5  A 3.5 3.5 0 0 1 1283.5 482 L 1283.5 485  A 3.5 3.5 0 0 1 1280 488.5 L 1277 488.5  A 3.5 3.5 0 0 1 1273.5 485 L 1273.5 482  Z " stroke-width="1" stroke="#8c8c8c" fill="none" />
</svg>