<?xml version="1.0" encoding="utf-8"?>
<svg version="1.1" xmlns:xlink="http://www.w3.org/1999/xlink" width="11px" height="11px" viewBox="1764 318  11 11" xmlns="http://www.w3.org/2000/svg">
  <path d="M 1765 322  A 3 3 0 0 1 1768 319 L 1771 319  A 3 3 0 0 1 1774 322 L 1774 325  A 3 3 0 0 1 1771 328 L 1768 328  A 3 3 0 0 1 1765 325 L 1765 322  Z " fill-rule="nonzero" fill="#f0f0f0" stroke="none" />
  <path d="M 1764.5 322  A 3.5 3.5 0 0 1 1768 318.5 L 1771 318.5  A 3.5 3.5 0 0 1 1774.5 322 L 1774.5 325  A 3.5 3.5 0 0 1 1771 328.5 L 1768 328.5  A 3.5 3.5 0 0 1 1764.5 325 L 1764.5 322  Z " stroke-width="1" stroke="#8c8c8c" fill="none" stroke-opacity="0.737254901960784" />
</svg>