<?xml version="1.0" encoding="utf-8"?>
<svg version="1.1" xmlns:xlink="http://www.w3.org/1999/xlink" width="11px" height="11px" viewBox="1764 288  11 11" xmlns="http://www.w3.org/2000/svg">
  <path d="M 1765 292  A 3 3 0 0 1 1768 289 L 1771 289  A 3 3 0 0 1 1774 292 L 1774 295  A 3 3 0 0 1 1771 298 L 1768 298  A 3 3 0 0 1 1765 295 L 1765 292  Z " fill-rule="nonzero" fill="#ffffff" stroke="none" />
  <path d="M 1764.5 292  A 3.5 3.5 0 0 1 1768 288.5 L 1771 288.5  A 3.5 3.5 0 0 1 1774.5 292 L 1774.5 295  A 3.5 3.5 0 0 1 1771 298.5 L 1768 298.5  A 3.5 3.5 0 0 1 1764.5 295 L 1764.5 292  Z " stroke-width="1" stroke="#8c8c8c" fill="none" stroke-opacity="0.737254901960784" />
  <path d="M 1766.35714285714 293.5  L 1768.71428571429 295.857142857143  " stroke-width="2.35714285714286" stroke="#8c8c8c" fill="none" stroke-opacity="0.737254901960784" />
  <path d="M 1768.71428571429 295.857142857143  L 1772.64285714286 290.357142857143  " stroke-width="2.35714285714286" stroke="#8c8c8c" fill="none" stroke-opacity="0.737254901960784" />
</svg>