<?xml version="1.0" encoding="utf-8"?>
<svg version="1.1" xmlns:xlink="http://www.w3.org/1999/xlink" width="11px" height="11px" viewBox="1753 317  11 11" xmlns="http://www.w3.org/2000/svg">
  <path d="M 1754 321  A 3 3 0 0 1 1757 318 L 1760 318  A 3 3 0 0 1 1763 321 L 1763 324  A 3 3 0 0 1 1760 327 L 1757 327  A 3 3 0 0 1 1754 324 L 1754 321  Z " fill-rule="nonzero" fill="#f0f0f0" stroke="none" />
  <path d="M 1753.5 321  A 3.5 3.5 0 0 1 1757 317.5 L 1760 317.5  A 3.5 3.5 0 0 1 1763.5 321 L 1763.5 324  A 3.5 3.5 0 0 1 1760 327.5 L 1757 327.5  A 3.5 3.5 0 0 1 1753.5 324 L 1753.5 321  Z " stroke-width="1" stroke="#8c8c8c" fill="none" stroke-opacity="0.737254901960784" />
</svg>