<?xml version="1.0" encoding="utf-8"?>
<svg version="1.1" xmlns:xlink="http://www.w3.org/1999/xlink" width="11px" height="11px" viewBox="1753 287  11 11" xmlns="http://www.w3.org/2000/svg">
  <path d="M 1754 291  A 3 3 0 0 1 1757 288 L 1760 288  A 3 3 0 0 1 1763 291 L 1763 294  A 3 3 0 0 1 1760 297 L 1757 297  A 3 3 0 0 1 1754 294 L 1754 291  Z " fill-rule="nonzero" fill="#f0f0f0" stroke="none" />
  <path d="M 1753.5 291  A 3.5 3.5 0 0 1 1757 287.5 L 1760 287.5  A 3.5 3.5 0 0 1 1763.5 291 L 1763.5 294  A 3.5 3.5 0 0 1 1760 297.5 L 1757 297.5  A 3.5 3.5 0 0 1 1753.5 294 L 1753.5 291  Z " stroke-width="1" stroke="#8c8c8c" fill="none" stroke-opacity="0.737254901960784" />
</svg>