<?xml version="1.0" encoding="utf-8"?>
<svg version="1.1" xmlns:xlink="http://www.w3.org/1999/xlink" width="1526px" height="106px" xmlns="http://www.w3.org/2000/svg">
  <g transform="matrix(1 0 0 1 -99 -447 )">
    <path d="M 100 467  A 19 19 0 0 1 119 448 L 1605 448  A 19 19 0 0 1 1624 467 L 1624 533  A 19 19 0 0 1 1605 552 L 119 552  A 19 19 0 0 1 100 533 L 100 467  Z " fill-rule="nonzero" fill="#ffffff" stroke="none" />
    <path d="M 99.5 467  A 19.5 19.5 0 0 1 119 447.5 L 1605 447.5  A 19.5 19.5 0 0 1 1624.5 467 L 1624.5 533  A 19.5 19.5 0 0 1 1605 552.5 L 119 552.5  A 19.5 19.5 0 0 1 99.5 533 L 99.5 467  Z " stroke-width="1" stroke="#8c8c8c" fill="none" stroke-opacity="0.349019607843137" />
  </g>
</svg>