<?xml version="1.0" encoding="utf-8"?>
<svg version="1.1" xmlns:xlink="http://www.w3.org/1999/xlink" width="17px" height="17px" viewBox="1170 497  17 17" xmlns="http://www.w3.org/2000/svg">
  <path d="M 1178.5 497  C 1183.26 497  1187 500.74  1187 505.5  C 1187 510.26  1183.26 514  1178.5 514  C 1173.74 514  1170 510.26  1170 505.5  C 1170 500.74  1173.74 497  1178.5 497  Z " fill-rule="nonzero" fill="#ffffff" stroke="none" />
  <path d="M 1178.5 497.5  C 1182.98 497.5  1186.5 501.02  1186.5 505.5  C 1186.5 509.98  1182.98 513.5  1178.5 513.5  C 1174.02 513.5  1170.5 509.98  1170.5 505.5  C 1170.5 501.02  1174.02 497.5  1178.5 497.5  Z " stroke-width="1" stroke="#f60068" fill="none" />
  <path d="M 1178.5 509.75  C 1176.12 509.75  1174.25 507.88  1174.25 505.5  C 1174.25 503.12  1176.12 501.25  1178.5 501.25  C 1180.88 501.25  1182.75 503.12  1182.75 505.5  C 1182.75 507.88  1180.88 509.75  1178.5 509.75  " fill-rule="nonzero" fill="#f60068" stroke="none" />
</svg>