<?xml version="1.0" encoding="utf-8"?>
<svg version="1.1" xmlns:xlink="http://www.w3.org/1999/xlink" width="17px" height="17px" viewBox="929 497  17 17" xmlns="http://www.w3.org/2000/svg">
  <path d="M 937.5 497  C 942.26 497  946 500.74  946 505.5  C 946 510.26  942.26 514  937.5 514  C 932.74 514  929 510.26  929 505.5  C 929 500.74  932.74 497  937.5 497  Z " fill-rule="nonzero" fill="#ffffff" stroke="none" />
  <path d="M 937.5 497.5  C 941.98 497.5  945.5 501.02  945.5 505.5  C 945.5 509.98  941.98 513.5  937.5 513.5  C 933.02 513.5  929.5 509.98  929.5 505.5  C 929.5 501.02  933.02 497.5  937.5 497.5  Z " stroke-width="1" stroke="#f60068" fill="none" />
  <path d="M 937.5 509.75  C 935.12 509.75  933.25 507.88  933.25 505.5  C 933.25 503.12  935.12 501.25  937.5 501.25  C 939.88 501.25  941.75 503.12  941.75 505.5  C 941.75 507.88  939.88 509.75  937.5 509.75  " fill-rule="nonzero" fill="#f60068" stroke="none" />
</svg>