<?xml version="1.0" encoding="utf-8"?>
<svg version="1.1" xmlns:xlink="http://www.w3.org/1999/xlink" width="1526px" height="243px" xmlns="http://www.w3.org/2000/svg">
  <g transform="matrix(1 0 0 1 -100 -73 )">
    <path d="M 101 93  A 19 19 0 0 1 120 74 L 1606 74  A 19 19 0 0 1 1625 93 L 1625 296  A 19 19 0 0 1 1606 315 L 120 315  A 19 19 0 0 1 101 296 L 101 93  Z " fill-rule="nonzero" fill="#ffffff" stroke="none" />
    <path d="M 100.5 93  A 19.5 19.5 0 0 1 120 73.5 L 1606 73.5  A 19.5 19.5 0 0 1 1625.5 93 L 1625.5 296  A 19.5 19.5 0 0 1 1606 315.5 L 120 315.5  A 19.5 19.5 0 0 1 100.5 296 L 100.5 93  Z " stroke-width="1" stroke="#8c8c8c" fill="none" stroke-opacity="0.349019607843137" />
  </g>
</svg>