<?xml version="1.0" encoding="utf-8"?>
<svg version="1.1" xmlns:xlink="http://www.w3.org/1999/xlink" width="1526px" height="401px" xmlns="http://www.w3.org/2000/svg">
  <g transform="matrix(1 0 0 1 -100 -643 )">
    <path d="M 101 663  A 19 19 0 0 1 120 644 L 1606 644  A 19 19 0 0 1 1625 663 L 1625 1024  A 19 19 0 0 1 1606 1043 L 120 1043  A 19 19 0 0 1 101 1024 L 101 663  Z " fill-rule="nonzero" fill="#ffffff" stroke="none" />
    <path d="M 100.5 663  A 19.5 19.5 0 0 1 120 643.5 L 1606 643.5  A 19.5 19.5 0 0 1 1625.5 663 L 1625.5 1024  A 19.5 19.5 0 0 1 1606 1043.5 L 120 1043.5  A 19.5 19.5 0 0 1 100.5 1024 L 100.5 663  Z " stroke-width="1" stroke="#8c8c8c" fill="none" stroke-opacity="0.349019607843137" />
  </g>
</svg>