<?xml version="1.0" encoding="utf-8"?>
<svg version="1.1" xmlns:xlink="http://www.w3.org/1999/xlink" width="12px" height="12px" viewBox="767 485  12 12" xmlns="http://www.w3.org/2000/svg">
  <path d="M 767.5 488  A 2.5 2.5 0 0 1 770 485.5 L 776 485.5  A 2.5 2.5 0 0 1 778.5 488 L 778.5 494  A 2.5 2.5 0 0 1 776 496.5 L 770 496.5  A 2.5 2.5 0 0 1 767.5 494 L 767.5 488  Z " fill-rule="nonzero" fill="#ffffff" stroke="none" />
  <path d="M 767.5 488  A 2.5 2.5 0 0 1 770 485.5 L 776 485.5  A 2.5 2.5 0 0 1 778.5 488 L 778.5 494  A 2.5 2.5 0 0 1 776 496.5 L 770 496.5  A 2.5 2.5 0 0 1 767.5 494 L 767.5 488  Z " stroke-width="1" stroke="#797979" fill="none" />
</svg>