<?xml version="1.0" encoding="utf-8"?>
<svg version="1.1" xmlns:xlink="http://www.w3.org/1999/xlink" width="12px" height="12px" viewBox="620 485  12 12" xmlns="http://www.w3.org/2000/svg">
  <path d="M 620.5 488  A 2.5 2.5 0 0 1 623 485.5 L 629 485.5  A 2.5 2.5 0 0 1 631.5 488 L 631.5 494  A 2.5 2.5 0 0 1 629 496.5 L 623 496.5  A 2.5 2.5 0 0 1 620.5 494 L 620.5 488  Z " fill-rule="nonzero" fill="#ffffff" stroke="none" />
  <path d="M 620.5 488  A 2.5 2.5 0 0 1 623 485.5 L 629 485.5  A 2.5 2.5 0 0 1 631.5 488 L 631.5 494  A 2.5 2.5 0 0 1 629 496.5 L 623 496.5  A 2.5 2.5 0 0 1 620.5 494 L 620.5 488  Z " stroke-width="1" stroke="#f60068" fill="none" />
  <path d="M 622.571428571429 491  L 625.142857142857 493.571428571429  " stroke-width="2.57142857142857" stroke="#f60068" fill="none" />
  <path d="M 625.142857142857 493.571428571429  L 629.428571428571 487.571428571429  " stroke-width="2.57142857142857" stroke="#f60068" fill="none" />
</svg>