<?xml version="1.0" encoding="utf-8"?>
<svg version="1.1" xmlns:xlink="http://www.w3.org/1999/xlink" width="1526px" height="350px" xmlns="http://www.w3.org/2000/svg">
  <g transform="matrix(1 0 0 1 -100 -314 )">
    <path d="M 101 334  A 19 19 0 0 1 120 315 L 1606 315  A 19 19 0 0 1 1625 334 L 1625 644  A 19 19 0 0 1 1606 663 L 120 663  A 19 19 0 0 1 101 644 L 101 334  Z " fill-rule="nonzero" fill="#ffffff" stroke="none" />
    <path d="M 100.5 334  A 19.5 19.5 0 0 1 120 314.5 L 1606 314.5  A 19.5 19.5 0 0 1 1625.5 334 L 1625.5 644  A 19.5 19.5 0 0 1 1606 663.5 L 120 663.5  A 19.5 19.5 0 0 1 100.5 644 L 100.5 334  Z " stroke-width="1" stroke="#8c8c8c" fill="none" stroke-opacity="0.349019607843137" />
  </g>
</svg>