<?xml version="1.0" encoding="utf-8"?>
<svg version="1.1" xmlns:xlink="http://www.w3.org/1999/xlink" width="12px" height="12px" viewBox="767 156  12 12" xmlns="http://www.w3.org/2000/svg">
  <path d="M 767.5 159  A 2.5 2.5 0 0 1 770 156.5 L 776 156.5  A 2.5 2.5 0 0 1 778.5 159 L 778.5 165  A 2.5 2.5 0 0 1 776 167.5 L 770 167.5  A 2.5 2.5 0 0 1 767.5 165 L 767.5 159  Z " fill-rule="nonzero" fill="#ffffff" stroke="none" />
  <path d="M 767.5 159  A 2.5 2.5 0 0 1 770 156.5 L 776 156.5  A 2.5 2.5 0 0 1 778.5 159 L 778.5 165  A 2.5 2.5 0 0 1 776 167.5 L 770 167.5  A 2.5 2.5 0 0 1 767.5 165 L 767.5 159  Z " stroke-width="1" stroke="#f60068" fill="none" />
  <path d="M 769.571428571429 162  L 772.142857142857 164.571428571429  " stroke-width="2.57142857142857" stroke="#f60068" fill="none" />
  <path d="M 772.142857142857 164.571428571429  L 776.428571428571 158.571428571429  " stroke-width="2.57142857142857" stroke="#f60068" fill="none" />
</svg>