<?xml version="1.0" encoding="utf-8"?>
<svg version="1.1" xmlns:xlink="http://www.w3.org/1999/xlink" width="12px" height="12px" viewBox="620 156  12 12" xmlns="http://www.w3.org/2000/svg">
  <path d="M 620.5 159  A 2.5 2.5 0 0 1 623 156.5 L 629 156.5  A 2.5 2.5 0 0 1 631.5 159 L 631.5 165  A 2.5 2.5 0 0 1 629 167.5 L 623 167.5  A 2.5 2.5 0 0 1 620.5 165 L 620.5 159  Z " fill-rule="nonzero" fill="#f0f0f0" stroke="none" />
  <path d="M 620.5 159  A 2.5 2.5 0 0 1 623 156.5 L 629 156.5  A 2.5 2.5 0 0 1 631.5 159 L 631.5 165  A 2.5 2.5 0 0 1 629 167.5 L 623 167.5  A 2.5 2.5 0 0 1 620.5 165 L 620.5 159  Z " stroke-width="1" stroke="#797979" fill="none" />
</svg>