<?xml version="1.0" encoding="utf-8"?>
<svg version="1.1" xmlns:xlink="http://www.w3.org/1999/xlink" width="12px" height="12px" viewBox="468 156  12 12" xmlns="http://www.w3.org/2000/svg">
  <path d="M 468.5 159  A 2.5 2.5 0 0 1 471 156.5 L 477 156.5  A 2.5 2.5 0 0 1 479.5 159 L 479.5 165  A 2.5 2.5 0 0 1 477 167.5 L 471 167.5  A 2.5 2.5 0 0 1 468.5 165 L 468.5 159  Z " fill-rule="nonzero" fill="#ffffff" stroke="none" />
  <path d="M 468.5 159  A 2.5 2.5 0 0 1 471 156.5 L 477 156.5  A 2.5 2.5 0 0 1 479.5 159 L 479.5 165  A 2.5 2.5 0 0 1 477 167.5 L 471 167.5  A 2.5 2.5 0 0 1 468.5 165 L 468.5 159  Z " stroke-width="1" stroke="#797979" fill="none" />
</svg>