<?xml version="1.0" encoding="utf-8"?>
<svg version="1.1" xmlns:xlink="http://www.w3.org/1999/xlink" width="11px" height="11px" viewBox="1273 127  11 11" xmlns="http://www.w3.org/2000/svg">
  <path d="M 1273.5 131  A 3.5 3.5 0 0 1 1277 127.5 L 1280 127.5  A 3.5 3.5 0 0 1 1283.5 131 L 1283.5 134  A 3.5 3.5 0 0 1 1280 137.5 L 1277 137.5  A 3.5 3.5 0 0 1 1273.5 134 L 1273.5 131  Z " fill-rule="nonzero" fill="#ffffff" stroke="none" />
  <path d="M 1273.5 131  A 3.5 3.5 0 0 1 1277 127.5 L 1280 127.5  A 3.5 3.5 0 0 1 1283.5 131 L 1283.5 134  A 3.5 3.5 0 0 1 1280 137.5 L 1277 137.5  A 3.5 3.5 0 0 1 1273.5 134 L 1273.5 131  Z " stroke-width="1" stroke="#8c8c8c" fill="none" />
</svg>