<?xml version="1.0" encoding="utf-8"?>
<svg version="1.1" xmlns:xlink="http://www.w3.org/1999/xlink" width="11px" height="11px" viewBox="1273 180  11 11" xmlns="http://www.w3.org/2000/svg">
  <path d="M 1273.5 184  A 3.5 3.5 0 0 1 1277 180.5 L 1280 180.5  A 3.5 3.5 0 0 1 1283.5 184 L 1283.5 187  A 3.5 3.5 0 0 1 1280 190.5 L 1277 190.5  A 3.5 3.5 0 0 1 1273.5 187 L 1273.5 184  Z " fill-rule="nonzero" fill="#f0f0f0" stroke="none" />
  <path d="M 1273.5 184  A 3.5 3.5 0 0 1 1277 180.5 L 1280 180.5  A 3.5 3.5 0 0 1 1283.5 184 L 1283.5 187  A 3.5 3.5 0 0 1 1280 190.5 L 1277 190.5  A 3.5 3.5 0 0 1 1273.5 187 L 1273.5 184  Z " stroke-width="1" stroke="#8c8c8c" fill="none" />
  <path d="M 1275.35714285714 185.5  L 1277.71428571429 187.857142857143  " stroke-width="2.35714285714286" stroke="#8c8c8c" fill="none" />
  <path d="M 1277.71428571429 187.857142857143  L 1281.64285714286 182.357142857143  " stroke-width="2.35714285714286" stroke="#8c8c8c" fill="none" />
</svg>