<?xml version="1.0" encoding="utf-8"?>
<svg version="1.1" xmlns:xlink="http://www.w3.org/1999/xlink" width="11px" height="11px" viewBox="1273 396  11 11" xmlns="http://www.w3.org/2000/svg">
  <path d="M 1273.5 400  A 3.5 3.5 0 0 1 1277 396.5 L 1280 396.5  A 3.5 3.5 0 0 1 1283.5 400 L 1283.5 403  A 3.5 3.5 0 0 1 1280 406.5 L 1277 406.5  A 3.5 3.5 0 0 1 1273.5 403 L 1273.5 400  Z " fill-rule="nonzero" fill="#f0f0f0" stroke="none" />
  <path d="M 1273.5 400  A 3.5 3.5 0 0 1 1277 396.5 L 1280 396.5  A 3.5 3.5 0 0 1 1283.5 400 L 1283.5 403  A 3.5 3.5 0 0 1 1280 406.5 L 1277 406.5  A 3.5 3.5 0 0 1 1273.5 403 L 1273.5 400  Z " stroke-width="1" stroke="#8c8c8c" fill="none" />
  <path d="M 1275.35714285714 401.5  L 1277.71428571429 403.857142857143  " stroke-width="2.35714285714286" stroke="#8c8c8c" fill="none" />
  <path d="M 1277.71428571429 403.857142857143  L 1281.64285714286 398.357142857143  " stroke-width="2.35714285714286" stroke="#8c8c8c" fill="none" />
</svg>