<?xml version="1.0" encoding="utf-8"?>
<svg version="1.1" xmlns:xlink="http://www.w3.org/1999/xlink" width="253px" height="43px" viewBox="828 36  253 43" xmlns="http://www.w3.org/2000/svg">
  <path d="M 829 57.5  A 20.5 20.5 0 0 1 849.5 37 L 1059.5 37  A 20.5 20.5 0 0 1 1080 57.5 A 20.5 20.5 0 0 1 1059.5 78 L 849.5 78  A 20.5 20.5 0 0 1 829 57.5 Z " fill-rule="nonzero" fill="#ffffff" stroke="none" />
  <path d="M 828.5 57.5  A 21 21 0 0 1 849.5 36.5 L 1059.5 36.5  A 21 21 0 0 1 1080.5 57.5 A 21 21 0 0 1 1059.5 78.5 L 849.5 78.5  A 21 21 0 0 1 828.5 57.5 Z " stroke-width="1" stroke="#8c8c8c" fill="none" stroke-opacity="0.352941176470588" />
</svg>