<?xml version="1.0" encoding="utf-8"?>
<svg version="1.1" xmlns:xlink="http://www.w3.org/1999/xlink" width="108px" height="35px" viewBox="184 818  108 35" xmlns="http://www.w3.org/2000/svg">
  <path d="M 185 835.5  A 16.5 16.5 0 0 1 201.5 819 L 274.5 819  A 16.5 16.5 0 0 1 291 835.5 A 16.5 16.5 0 0 1 274.5 852 L 201.5 852  A 16.5 16.5 0 0 1 185 835.5 Z " fill-rule="nonzero" fill="#ffffff" stroke="none" />
  <path d="M 184.5 835.5  A 17 17 0 0 1 201.5 818.5 L 274.5 818.5  A 17 17 0 0 1 291.5 835.5 A 17 17 0 0 1 274.5 852.5 L 201.5 852.5  A 17 17 0 0 1 184.5 835.5 Z " stroke-width="1" stroke="#000000" fill="none" stroke-opacity="0.349019607843137" />
</svg>