<?xml version="1.0" encoding="utf-8"?>
<svg version="1.1" xmlns:xlink="http://www.w3.org/1999/xlink" width="1218px" height="459px" xmlns="http://www.w3.org/2000/svg">
  <g transform="matrix(1 0 0 1 -43 -66 )">
    <path d="M 44 71  A 4 4 0 0 1 48 67 L 1260 67  L 1260 520  A 4 4 0 0 1 1256 524 L 48 524  A 4 4 0 0 1 44 520 L 44 71  Z " fill-rule="nonzero" fill="#ffffff" stroke="none" fill-opacity="0.298039215686275" />
    <path d="M 43.5 71  A 4.5 4.5 0 0 1 48 66.5 L 1260.5 66.5  L 1260.5 520  A 4.5 4.5 0 0 1 1256 524.5 L 48 524.5  A 4.5 4.5 0 0 1 43.5 520 L 43.5 71  Z " stroke-width="1" stroke="#8c8c8c" fill="none" stroke-opacity="0.352941176470588" />
  </g>
</svg>