<?xml version="1.0" encoding="utf-8"?>
<svg version="1.1" xmlns:xlink="http://www.w3.org/1999/xlink" width="1300px" height="950px" xmlns="http://www.w3.org/2000/svg">
  <g transform="matrix(1 0 0 1 0 -1 )">
    <path d="M 1 6  A 4 4 0 0 1 5 2 L 1295 2  A 4 4 0 0 1 1299 6 L 1299 946  A 4 4 0 0 1 1295 950 L 5 950  A 4 4 0 0 1 1 946 L 1 6  Z " fill-rule="nonzero" fill="#ffffff" stroke="none" fill-opacity="0" />
    <path d="M 0.5 6  A 4.5 4.5 0 0 1 5 1.5 L 1295 1.5  A 4.5 4.5 0 0 1 1299.5 6 L 1299.5 946  A 4.5 4.5 0 0 1 1295 950.5 L 5 950.5  A 4.5 4.5 0 0 1 0.5 946 L 0.5 6  Z " stroke-width="1" stroke="#8c8c8c" fill="none" stroke-opacity="0.352941176470588" />
  </g>
</svg>