<?xml version="1.0" encoding="utf-8"?>
<svg version="1.1" xmlns:xlink="http://www.w3.org/1999/xlink" width="1218px" height="308px" xmlns="http://www.w3.org/2000/svg">
  <g transform="matrix(1 0 0 1 -44 -575 )">
    <path d="M 45 580  A 4 4 0 0 1 49 576 L 1257 576  A 4 4 0 0 1 1261 580 L 1261 878  A 4 4 0 0 1 1257 882 L 49 882  A 4 4 0 0 1 45 878 L 45 580  Z " fill-rule="nonzero" fill="#ffffff" stroke="none" fill-opacity="0.298039215686275" />
    <path d="M 44.5 580  A 4.5 4.5 0 0 1 49 575.5 L 1257 575.5  A 4.5 4.5 0 0 1 1261.5 580 L 1261.5 878  A 4.5 4.5 0 0 1 1257 882.5 L 49 882.5  A 4.5 4.5 0 0 1 44.5 878 L 44.5 580  Z " stroke-width="1" stroke="#8c8c8c" fill="none" stroke-opacity="0.352941176470588" />
  </g>
</svg>