<?xml version="1.0" encoding="utf-8"?>
<svg version="1.1" xmlns:xlink="http://www.w3.org/1999/xlink" width="170px" height="25px" viewBox="38 47  170 25" xmlns="http://www.w3.org/2000/svg">
  <path d="M 39 52  A 4 4 0 0 1 43 48 L 203 48  A 4 4 0 0 1 207 52 L 207 67  A 4 4 0 0 1 203 71 L 43 71  A 4 4 0 0 1 39 67 L 39 52  Z " fill-rule="nonzero" fill="#ffffff" stroke="none" />
  <path d="M 38.5 52  A 4.5 4.5 0 0 1 43 47.5 L 203 47.5  A 4.5 4.5 0 0 1 207.5 52 L 207.5 67  A 4.5 4.5 0 0 1 203 71.5 L 43 71.5  A 4.5 4.5 0 0 1 38.5 67 L 38.5 52  Z " stroke-width="1" stroke="#8c8c8c" fill="none" stroke-opacity="0.352941176470588" />
</svg>