<?xml version="1.0" encoding="utf-8"?>
<svg version="1.1" xmlns:xlink="http://www.w3.org/1999/xlink" width="237px" height="34px" viewBox="687 41  237 34" xmlns="http://www.w3.org/2000/svg">
  <path d="M 688 46  A 4 4 0 0 1 692 42 L 919 42  A 4 4 0 0 1 923 46 L 923 70  A 4 4 0 0 1 919 74 L 692 74  A 4 4 0 0 1 688 70 L 688 46  Z " fill-rule="nonzero" fill="#ffffff" stroke="none" />
  <path d="M 687.5 46  A 4.5 4.5 0 0 1 692 41.5 L 919 41.5  A 4.5 4.5 0 0 1 923.5 46 L 923.5 70  A 4.5 4.5 0 0 1 919 74.5 L 692 74.5  A 4.5 4.5 0 0 1 687.5 70 L 687.5 46  Z " stroke-width="1" stroke="#8c8c8c" fill="none" stroke-opacity="0.352941176470588" />
</svg>