<?xml version="1.0" encoding="utf-8"?>
<svg version="1.1" xmlns:xlink="http://www.w3.org/1999/xlink" width="307px" height="70px" xmlns="http://www.w3.org/2000/svg">
  <g transform="matrix(1 0 0 1 -947 -401 )">
    <path d="M 948 436  A 34 34 0 0 1 982 402 L 1219 402  A 34 34 0 0 1 1253 436 A 34 34 0 0 1 1219 470 L 982 470  A 34 34 0 0 1 948 436 Z " fill-rule="nonzero" fill="#ffffff" stroke="none" />
    <path d="M 947.5 436  A 34.5 34.5 0 0 1 982 401.5 L 1219 401.5  A 34.5 34.5 0 0 1 1253.5 436 A 34.5 34.5 0 0 1 1219 470.5 L 982 470.5  A 34.5 34.5 0 0 1 947.5 436 Z " stroke-width="1" stroke="#8c8c8c" fill="none" stroke-opacity="0.352941176470588" />
  </g>
</svg>