<?xml version="1.0" encoding="utf-8"?>
<svg version="1.1" xmlns:xlink="http://www.w3.org/1999/xlink" width="292px" height="70px" viewBox="395 401  292 70" xmlns="http://www.w3.org/2000/svg">
  <path d="M 396 436  A 34 34 0 0 1 430 402 L 652 402  A 34 34 0 0 1 686 436 A 34 34 0 0 1 652 470 L 430 470  A 34 34 0 0 1 396 436 Z " fill-rule="nonzero" fill="#ffffff" stroke="none" />
  <path d="M 395.5 436  A 34.5 34.5 0 0 1 430 401.5 L 652 401.5  A 34.5 34.5 0 0 1 686.5 436 A 34.5 34.5 0 0 1 652 470.5 L 430 470.5  A 34.5 34.5 0 0 1 395.5 436 Z " stroke-width="1" stroke="#8c8c8c" fill="none" stroke-opacity="0.352941176470588" />
</svg>