<?xml version="1.0" encoding="utf-8"?>
<svg version="1.1" xmlns:xlink="http://www.w3.org/1999/xlink" width="19px" height="15px" xmlns="http://www.w3.org/2000/svg">
  <g transform="matrix(1 0 0 1 -1053 -436 )">
    <path d="M 14.3984375 13.564453125  C 14.5430689102564 13.4407552083333  14.6153846153846 13.2942708333333  14.6153846153846 13.125  C 14.6153846153846 12.9557291666667  14.5430689102564 12.8092447916667  14.3984375 12.685546875  C 14.2538060897436 12.5618489583333  14.0825320512821 12.5  13.8846153846154 12.5  C 13.6866987179487 12.5  13.5154246794872 12.5618489583333  13.3707932692308 12.685546875  C 13.2261618589744 12.8092447916667  13.1538461538462 12.9557291666667  13.1538461538462 13.125  C 13.1538461538462 13.2942708333333  13.2261618589744 13.4407552083333  13.3707932692308 13.564453125  C 13.5154246794872 13.6881510416667  13.6866987179487 13.75  13.8846153846154 13.75  C 14.0825320512821 13.75  14.2538060897436 13.6881510416667  14.3984375 13.564453125  Z M 17.3215144230769 13.564453125  C 17.4661458333333 13.4407552083333  17.5384615384615 13.2942708333333  17.5384615384615 13.125  C 17.5384615384615 12.9557291666667  17.4661458333333 12.8092447916667  17.3215144230769 12.685546875  C 17.1768830128205 12.5618489583333  17.005608974359 12.5  16.8076923076923 12.5  C 16.6097756410256 12.5  16.4385016025641 12.5618489583333  16.2938701923077 12.685546875  C 16.1492387820513 12.8092447916667  16.0769230769231 12.9557291666667  16.0769230769231 13.125  C 16.0769230769231 13.2942708333333  16.1492387820513 13.4407552083333  16.2938701923077 13.564453125  C 16.4385016025641 13.6881510416667  16.6097756410256 13.75  16.8076923076923 13.75  C 17.005608974359 13.75  17.1768830128205 13.6881510416667  17.3215144230769 13.564453125  Z M 18.6802884615385 10.2734375  C 18.8934294871795 10.4557291666667  19 10.6770833333333  19 10.9375  L 19 14.0625  C 19 14.3229166666667  18.8934294871795 14.5442708333333  18.6802884615385 14.7265625  C 18.4671474358974 14.9088541666667  18.2083333333333 15  17.9038461538462 15  L 1.09615384615385 15  C 0.791666666666667 15  0.532852564102564 14.9088541666667  0.319711538461538 14.7265625  C 0.106570512820513 14.5442708333333  0 14.3229166666667  0 14.0625  L 0 10.9375  C 0 10.6770833333333  0.106570512820513 10.4557291666667  0.319711538461538 10.2734375  C 0.532852564102564 10.0911458333333  0.791666666666667 10  1.09615384615385 10  L 6.40564903846154 10  L 7.94711538461539 11.328125  C 8.3886217948718 11.6927083333333  8.90625 11.875  9.5 11.875  C 10.09375 11.875  10.6113782051282 11.6927083333333  11.0528846153846 11.328125  L 12.6057692307692 10  L 17.9038461538462 10  C 18.2083333333333 10  18.4671474358974 10.0911458333333  18.6802884615385 10.2734375  Z M 14.6153846153846 5  C 14.9350961538462 5  15.159655448718 5.126953125  15.2890625 5.380859375  C 15.4184695512821 5.64778645833333  15.3651842948718 5.87565104166667  15.1292067307692 6.064453125  L 10.0138221153846 10.439453125  C 9.87680288461538 10.5631510416667  9.70552884615385 10.625  9.5 10.625  C 9.29447115384615 10.625  9.12319711538462 10.5631510416667  8.98617788461539 10.439453125  L 3.87079326923077 6.064453125  C 3.63481570512821 5.87565104166667  3.58153044871795 5.64778645833333  3.7109375 5.380859375  C 3.84034455128205 5.126953125  4.06490384615385 5  4.38461538461539 5  L 7.30769230769231 5  L 7.30769230769231 0.624999999999999  C 7.30769230769231 0.455729166666665  7.38000801282051 0.309244791666665  7.52463942307692 0.185546874999999  C 7.66927083333333 0.0618489583333343  7.84054487179487 0  8.03846153846154 0  L 10.9615384615385 0  C 11.1594551282051 0  11.3307291666667 0.0618489583333343  11.4753605769231 0.185546874999999  C 11.6199919871795 0.309244791666665  11.6923076923077 0.455729166666665  11.6923076923077 0.624999999999999  L 11.6923076923077 5  L 14.6153846153846 5  Z " fill-rule="nonzero" fill="#797979" stroke="none" fill-opacity="0.894117647058824" transform="matrix(1 0 0 1 1053 436 )" />
  </g>
</svg>