<?xml version="1.0" encoding="utf-8"?>
<svg version="1.1" xmlns:xlink="http://www.w3.org/1999/xlink" width="629px" height="90px" viewBox="609 315  629 90" xmlns="http://www.w3.org/2000/svg">
  <path d="M 610 350  A 34 34 0 0 1 644 316 L 1203 316  A 34 34 0 0 1 1237 350 L 1237 370  A 34 34 0 0 1 1203 404 L 644 404  A 34 34 0 0 1 610 370 L 610 350  Z " fill-rule="nonzero" fill="#f0f0f0" stroke="none" />
  <path d="M 609.5 350  A 34.5 34.5 0 0 1 644 315.5 L 1203 315.5  A 34.5 34.5 0 0 1 1237.5 350 L 1237.5 370  A 34.5 34.5 0 0 1 1203 404.5 L 644 404.5  A 34.5 34.5 0 0 1 609.5 370 L 609.5 350  Z " stroke-width="1" stroke="#8c8c8c" fill="none" stroke-opacity="0.352941176470588" />
</svg>