<?xml version="1.0" encoding="utf-8"?>
<svg version="1.1" xmlns:xlink="http://www.w3.org/1999/xlink" width="629px" height="90px" xmlns="http://www.w3.org/2000/svg">
  <g transform="matrix(1 0 0 1 -609 -146 )">
    <path d="M 610 181  A 34 34 0 0 1 644 147 L 1203 147  A 34 34 0 0 1 1237 181 L 1237 201  A 34 34 0 0 1 1203 235 L 644 235  A 34 34 0 0 1 610 201 L 610 181  Z " fill-rule="nonzero" fill="#ffffff" stroke="none" />
    <path d="M 609.5 181  A 34.5 34.5 0 0 1 644 146.5 L 1203 146.5  A 34.5 34.5 0 0 1 1237.5 181 L 1237.5 201  A 34.5 34.5 0 0 1 1203 235.5 L 644 235.5  A 34.5 34.5 0 0 1 609.5 201 L 609.5 181  Z " stroke-width="1" stroke="#8c8c8c" fill="none" stroke-opacity="0.352941176470588" />
  </g>
</svg>