<?xml version="1.0" encoding="utf-8"?>
<svg version="1.1" xmlns:xlink="http://www.w3.org/1999/xlink" width="238px" height="70px" viewBox="23 388  238 70" xmlns="http://www.w3.org/2000/svg">
  <path d="M 24 423  A 34 34 0 0 1 58 389 L 226 389  A 34 34 0 0 1 260 423 A 34 34 0 0 1 226 457 L 58 457  A 34 34 0 0 1 24 423 Z " fill-rule="nonzero" fill="#ffffff" stroke="none" />
  <path d="M 23.5 423  A 34.5 34.5 0 0 1 58 388.5 L 226 388.5  A 34.5 34.5 0 0 1 260.5 423 A 34.5 34.5 0 0 1 226 457.5 L 58 457.5  A 34.5 34.5 0 0 1 23.5 423 Z " stroke-width="1" stroke="#8c8c8c" fill="none" stroke-opacity="0.352941176470588" />
</svg>