<?xml version="1.0" encoding="utf-8"?>
<svg version="1.1" xmlns:xlink="http://www.w3.org/1999/xlink" width="264px" height="70px" xmlns="http://www.w3.org/2000/svg">
  <g transform="matrix(1 0 0 1 -428 -387 )">
    <path d="M 429 422  A 34 34 0 0 1 463 388 L 657 388  A 34 34 0 0 1 691 422 A 34 34 0 0 1 657 456 L 463 456  A 34 34 0 0 1 429 422 Z " fill-rule="nonzero" fill="#ffffff" stroke="none" />
    <path d="M 428.5 422  A 34.5 34.5 0 0 1 463 387.5 L 657 387.5  A 34.5 34.5 0 0 1 691.5 422 A 34.5 34.5 0 0 1 657 456.5 L 463 456.5  A 34.5 34.5 0 0 1 428.5 422 Z " stroke-width="1" stroke="#8c8c8c" fill="none" stroke-opacity="0.352941176470588" />
  </g>
</svg>