<?xml version="1.0" encoding="utf-8"?>
<svg version="1.1" xmlns:xlink="http://www.w3.org/1999/xlink" width="512px" height="70px" xmlns="http://www.w3.org/2000/svg">
  <g transform="matrix(1 0 0 1 -95 -492 )">
    <path d="M 96 527  A 34 34 0 0 1 130 493 L 572 493  A 34 34 0 0 1 606 527 A 34 34 0 0 1 572 561 L 130 561  A 34 34 0 0 1 96 527 Z " fill-rule="nonzero" fill="#ffffff" stroke="none" />
    <path d="M 95.5 527  A 34.5 34.5 0 0 1 130 492.5 L 572 492.5  A 34.5 34.5 0 0 1 606.5 527 A 34.5 34.5 0 0 1 572 561.5 L 130 561.5  A 34.5 34.5 0 0 1 95.5 527 Z " stroke-width="1" stroke="#8c8c8c" fill="none" stroke-opacity="0.352941176470588" />
  </g>
</svg>