<?xml version="1.0" encoding="utf-8"?>
<svg version="1.1" xmlns:xlink="http://www.w3.org/1999/xlink" width="517px" height="70px" viewBox="722 492  517 70" xmlns="http://www.w3.org/2000/svg">
  <path d="M 723 527  A 34 34 0 0 1 757 493 L 1204 493  A 34 34 0 0 1 1238 527 A 34 34 0 0 1 1204 561 L 757 561  A 34 34 0 0 1 723 527 Z " fill-rule="nonzero" fill="#ffffff" stroke="none" />
  <path d="M 722.5 527  A 34.5 34.5 0 0 1 757 492.5 L 1204 492.5  A 34.5 34.5 0 0 1 1238.5 527 A 34.5 34.5 0 0 1 1204 561.5 L 757 561.5  A 34.5 34.5 0 0 1 722.5 527 Z " stroke-width="1" stroke="#8c8c8c" fill="none" stroke-opacity="0.352941176470588" />
</svg>