<?xml version="1.0" encoding="utf-8"?>
<svg version="1.1" xmlns:xlink="http://www.w3.org/1999/xlink" width="254px" height="35px" viewBox="650 145  254 35" xmlns="http://www.w3.org/2000/svg">
  <path d="M 651 162.5  A 16.5 16.5 0 0 1 667.5 146 L 886.5 146  A 16.5 16.5 0 0 1 903 162.5 A 16.5 16.5 0 0 1 886.5 179 L 667.5 179  A 16.5 16.5 0 0 1 651 162.5 Z " fill-rule="nonzero" fill="#f0f0f0" stroke="none" />
  <path d="M 650.5 162.5  A 17 17 0 0 1 667.5 145.5 L 886.5 145.5  A 17 17 0 0 1 903.5 162.5 A 17 17 0 0 1 886.5 179.5 L 667.5 179.5  A 17 17 0 0 1 650.5 162.5 Z " stroke-width="1" stroke="#8c8c8c" fill="none" stroke-opacity="0.352941176470588" />
</svg>