<?xml version="1.0" encoding="utf-8"?>
<svg version="1.1" xmlns:xlink="http://www.w3.org/1999/xlink" width="640px" height="70px" viewBox="645 420  640 70" xmlns="http://www.w3.org/2000/svg">
  <path d="M 646 455  A 34 34 0 0 1 680 421 L 1250 421  A 34 34 0 0 1 1284 455 A 34 34 0 0 1 1250 489 L 680 489  A 34 34 0 0 1 646 455 Z " fill-rule="nonzero" fill="#ffffff" stroke="none" />
  <path d="M 645.5 455  A 34.5 34.5 0 0 1 680 420.5 L 1250 420.5  A 34.5 34.5 0 0 1 1284.5 455 A 34.5 34.5 0 0 1 1250 489.5 L 680 489.5  A 34.5 34.5 0 0 1 645.5 455 Z " stroke-width="1" stroke="#8c8c8c" fill="none" stroke-opacity="0.352941176470588" />
</svg>