<?xml version="1.0" encoding="utf-8"?>
<svg version="1.1" xmlns:xlink="http://www.w3.org/1999/xlink" width="640px" height="70px" xmlns="http://www.w3.org/2000/svg">
  <g transform="matrix(1 0 0 1 -645 -263 )">
    <path d="M 646 298  A 34 34 0 0 1 680 264 L 1250 264  A 34 34 0 0 1 1284 298 A 34 34 0 0 1 1250 332 L 680 332  A 34 34 0 0 1 646 298 Z " fill-rule="nonzero" fill="#ffffff" stroke="none" />
    <path d="M 645.5 298  A 34.5 34.5 0 0 1 680 263.5 L 1250 263.5  A 34.5 34.5 0 0 1 1284.5 298 A 34.5 34.5 0 0 1 1250 332.5 L 680 332.5  A 34.5 34.5 0 0 1 645.5 298 Z " stroke-width="1" stroke="#8c8c8c" fill="none" stroke-opacity="0.352941176470588" />
  </g>
</svg>