<?xml version="1.0" encoding="utf-8"?>
<svg version="1.1" xmlns:xlink="http://www.w3.org/1999/xlink" width="11px" height="11px" viewBox="1264 180  11 11" xmlns="http://www.w3.org/2000/svg">
  <path d="M 1264.5 184  A 3.5 3.5 0 0 1 1268 180.5 L 1271 180.5  A 3.5 3.5 0 0 1 1274.5 184 L 1274.5 187  A 3.5 3.5 0 0 1 1271 190.5 L 1268 190.5  A 3.5 3.5 0 0 1 1264.5 187 L 1264.5 184  Z " fill-rule="nonzero" fill="#ffffff" stroke="none" />
  <path d="M 1264.5 184  A 3.5 3.5 0 0 1 1268 180.5 L 1271 180.5  A 3.5 3.5 0 0 1 1274.5 184 L 1274.5 187  A 3.5 3.5 0 0 1 1271 190.5 L 1268 190.5  A 3.5 3.5 0 0 1 1264.5 187 L 1264.5 184  Z " stroke-width="1" stroke="#8c8c8c" fill="none" />
</svg>