<?xml version="1.0" encoding="utf-8"?>
<svg version="1.1" xmlns:xlink="http://www.w3.org/1999/xlink" width="11px" height="11px" viewBox="1264 153  11 11" xmlns="http://www.w3.org/2000/svg">
  <path d="M 1264.5 157  A 3.5 3.5 0 0 1 1268 153.5 L 1271 153.5  A 3.5 3.5 0 0 1 1274.5 157 L 1274.5 160  A 3.5 3.5 0 0 1 1271 163.5 L 1268 163.5  A 3.5 3.5 0 0 1 1264.5 160 L 1264.5 157  Z " fill-rule="nonzero" fill="#f0f0f0" stroke="none" />
  <path d="M 1264.5 157  A 3.5 3.5 0 0 1 1268 153.5 L 1271 153.5  A 3.5 3.5 0 0 1 1274.5 157 L 1274.5 160  A 3.5 3.5 0 0 1 1271 163.5 L 1268 163.5  A 3.5 3.5 0 0 1 1264.5 160 L 1264.5 157  Z " stroke-width="1" stroke="#8c8c8c" fill="none" />
  <path d="M 1266.35714285714 158.5  L 1268.71428571429 160.857142857143  " stroke-width="2.35714285714286" stroke="#8c8c8c" fill="none" />
  <path d="M 1268.71428571429 160.857142857143  L 1272.64285714286 155.357142857143  " stroke-width="2.35714285714286" stroke="#8c8c8c" fill="none" />
</svg>