<?xml version="1.0" encoding="utf-8"?>
<svg version="1.1" xmlns:xlink="http://www.w3.org/1999/xlink" width="11px" height="11px" viewBox="1264 233  11 11" xmlns="http://www.w3.org/2000/svg">
  <path d="M 1264.5 237  A 3.5 3.5 0 0 1 1268 233.5 L 1271 233.5  A 3.5 3.5 0 0 1 1274.5 237 L 1274.5 240  A 3.5 3.5 0 0 1 1271 243.5 L 1268 243.5  A 3.5 3.5 0 0 1 1264.5 240 L 1264.5 237  Z " fill-rule="nonzero" fill="#ffffff" stroke="none" />
  <path d="M 1264.5 237  A 3.5 3.5 0 0 1 1268 233.5 L 1271 233.5  A 3.5 3.5 0 0 1 1274.5 237 L 1274.5 240  A 3.5 3.5 0 0 1 1271 243.5 L 1268 243.5  A 3.5 3.5 0 0 1 1264.5 240 L 1264.5 237  Z " stroke-width="1" stroke="#8c8c8c" fill="none" />
</svg>