<?xml version="1.0" encoding="utf-8"?>
<svg version="1.1" xmlns:xlink="http://www.w3.org/1999/xlink" width="11px" height="11px" viewBox="1264 342  11 11" xmlns="http://www.w3.org/2000/svg">
  <path d="M 1264.5 346  A 3.5 3.5 0 0 1 1268 342.5 L 1271 342.5  A 3.5 3.5 0 0 1 1274.5 346 L 1274.5 349  A 3.5 3.5 0 0 1 1271 352.5 L 1268 352.5  A 3.5 3.5 0 0 1 1264.5 349 L 1264.5 346  Z " fill-rule="nonzero" fill="#f0f0f0" stroke="none" />
  <path d="M 1264.5 346  A 3.5 3.5 0 0 1 1268 342.5 L 1271 342.5  A 3.5 3.5 0 0 1 1274.5 346 L 1274.5 349  A 3.5 3.5 0 0 1 1271 352.5 L 1268 352.5  A 3.5 3.5 0 0 1 1264.5 349 L 1264.5 346  Z " stroke-width="1" stroke="#8c8c8c" fill="none" />
  <path d="M 1266.35714285714 347.5  L 1268.71428571429 349.857142857143  " stroke-width="2.35714285714286" stroke="#8c8c8c" fill="none" />
  <path d="M 1268.71428571429 349.857142857143  L 1272.64285714286 344.357142857143  " stroke-width="2.35714285714286" stroke="#8c8c8c" fill="none" />
</svg>