<?xml version="1.0" encoding="utf-8"?>
<svg version="1.1" xmlns:xlink="http://www.w3.org/1999/xlink" width="11px" height="11px" viewBox="1264 424  11 11" xmlns="http://www.w3.org/2000/svg">
  <path d="M 1264.5 428  A 3.5 3.5 0 0 1 1268 424.5 L 1271 424.5  A 3.5 3.5 0 0 1 1274.5 428 L 1274.5 431  A 3.5 3.5 0 0 1 1271 434.5 L 1268 434.5  A 3.5 3.5 0 0 1 1264.5 431 L 1264.5 428  Z " fill-rule="nonzero" fill="#ffffff" stroke="none" />
  <path d="M 1264.5 428  A 3.5 3.5 0 0 1 1268 424.5 L 1271 424.5  A 3.5 3.5 0 0 1 1274.5 428 L 1274.5 431  A 3.5 3.5 0 0 1 1271 434.5 L 1268 434.5  A 3.5 3.5 0 0 1 1264.5 431 L 1264.5 428  Z " stroke-width="1" stroke="#8c8c8c" fill="none" />
  <path d="M 1266.35714285714 429.5  L 1268.71428571429 431.857142857143  " stroke-width="2.35714285714286" stroke="#8c8c8c" fill="none" />
  <path d="M 1268.71428571429 431.857142857143  L 1272.64285714286 426.357142857143  " stroke-width="2.35714285714286" stroke="#8c8c8c" fill="none" />
</svg>