<?xml version="1.0" encoding="utf-8"?>
<svg version="1.1" xmlns:xlink="http://www.w3.org/1999/xlink" width="144px" height="25px" viewBox="331 46  144 25" xmlns="http://www.w3.org/2000/svg">
  <path d="M 332 51  A 4 4 0 0 1 336 47 L 470 47  A 4 4 0 0 1 474 51 L 474 66  A 4 4 0 0 1 470 70 L 336 70  A 4 4 0 0 1 332 66 L 332 51  Z " fill-rule="nonzero" fill="#f0f0f0" stroke="none" />
  <path d="M 331.5 51  A 4.5 4.5 0 0 1 336 46.5 L 470 46.5  A 4.5 4.5 0 0 1 474.5 51 L 474.5 66  A 4.5 4.5 0 0 1 470 70.5 L 336 70.5  A 4.5 4.5 0 0 1 331.5 66 L 331.5 51  Z " stroke-width="1" stroke="#dddddd" fill="none" stroke-opacity="0.298039215686275" />
</svg>