<?xml version="1.0" encoding="utf-8"?>
<svg version="1.1" xmlns:xlink="http://www.w3.org/1999/xlink" width="170px" height="47px" viewBox="267 23  170 47" xmlns="http://www.w3.org/2000/svg">
  <path d="M 268 35  A 11 11 0 0 1 279 24 L 425 24  A 11 11 0 0 1 436 35 L 436 58  A 11 11 0 0 1 425 69 L 279 69  A 11 11 0 0 1 268 58 L 268 35  Z " fill-rule="nonzero" fill="#f0f0f0" stroke="none" />
  <path d="M 267.5 35  A 11.5 11.5 0 0 1 279 23.5 L 425 23.5  A 11.5 11.5 0 0 1 436.5 35 L 436.5 58  A 11.5 11.5 0 0 1 425 69.5 L 279 69.5  A 11.5 11.5 0 0 1 267.5 58 L 267.5 35  Z " stroke-width="1" stroke="#dddddd" fill="none" stroke-opacity="0.352941176470588" />
</svg>