<?xml version="1.0" encoding="utf-8"?>
<svg version="1.1" xmlns:xlink="http://www.w3.org/1999/xlink" width="172px" height="47px" viewBox="263 98  172 47" xmlns="http://www.w3.org/2000/svg">
  <path d="M 264 110  A 11 11 0 0 1 275 99 L 423 99  A 11 11 0 0 1 434 110 L 434 133  A 11 11 0 0 1 423 144 L 275 144  A 11 11 0 0 1 264 133 L 264 110  Z " fill-rule="nonzero" fill="#ffffff" stroke="none" />
  <path d="M 263.5 110  A 11.5 11.5 0 0 1 275 98.5 L 423 98.5  A 11.5 11.5 0 0 1 434.5 110 L 434.5 133  A 11.5 11.5 0 0 1 423 144.5 L 275 144.5  A 11.5 11.5 0 0 1 263.5 133 L 263.5 110  Z " stroke-width="1" stroke="#dddddd" fill="none" stroke-opacity="0.352941176470588" />
</svg>