<?xml version="1.0" encoding="utf-8"?>
<svg version="1.1" xmlns:xlink="http://www.w3.org/1999/xlink" width="12px" height="12px" viewBox="425 81  12 12" xmlns="http://www.w3.org/2000/svg">
  <path d="M 425.5 84  A 2.5 2.5 0 0 1 428 81.5 L 434 81.5  A 2.5 2.5 0 0 1 436.5 84 L 436.5 90  A 2.5 2.5 0 0 1 434 92.5 L 428 92.5  A 2.5 2.5 0 0 1 425.5 90 L 425.5 84  Z " fill-rule="nonzero" fill="#f0f0f0" stroke="none" />
  <path d="M 425.5 84  A 2.5 2.5 0 0 1 428 81.5 L 434 81.5  A 2.5 2.5 0 0 1 436.5 84 L 436.5 90  A 2.5 2.5 0 0 1 434 92.5 L 428 92.5  A 2.5 2.5 0 0 1 425.5 90 L 425.5 84  Z " stroke-width="1" stroke="#797979" fill="none" />
</svg>