<?xml version="1.0" encoding="utf-8"?>
<svg version="1.1" xmlns:xlink="http://www.w3.org/1999/xlink" width="15px" height="14px" xmlns="http://www.w3.org/2000/svg">
  <g transform="matrix(1 0 0 1 -1137 -13 )">
    <path d="M 3.17138671875 9.38875  C 3.40087890625 9.11458333333333  3.515625 8.785  3.515625 8.4  C 3.515625 8.015  3.40087890625 7.68541666666667  3.17138671875 7.41125  C 2.94189453125 7.13708333333333  2.666015625 7  2.34375 7  C 2.021484375 7  1.74560546875 7.13708333333333  1.51611328125 7.41125  C 1.28662109375 7.68541666666667  1.171875 8.015  1.171875 8.4  C 1.171875 8.785  1.28662109375 9.11458333333333  1.51611328125 9.38875  C 1.74560546875 9.66291666666667  2.021484375 9.8  2.34375 9.8  C 2.666015625 9.8  2.94189453125 9.66291666666667  3.17138671875 9.38875  Z M 4.43115234375 2.47625  L 3.779296875 5.6  L 11.220703125 5.6  L 10.56884765625 2.47625  C 10.55908203125 2.42958333333333  10.52490234375 2.37854166666667  10.46630859375 2.323125  C 10.40771484375 2.26770833333333  10.3564453125 2.24  10.3125 2.24  L 4.6875 2.24  C 4.6435546875 2.24  4.59228515625 2.26770833333333  4.53369140625 2.323125  C 4.47509765625 2.37854166666667  4.44091796875 2.42958333333333  4.43115234375 2.47625  Z M 13.48388671875 9.38875  C 13.71337890625 9.11458333333333  13.828125 8.785  13.828125 8.4  C 13.828125 8.015  13.71337890625 7.68541666666667  13.48388671875 7.41125  C 13.25439453125 7.13708333333333  12.978515625 7  12.65625 7  C 12.333984375 7  12.05810546875 7.13708333333333  11.82861328125 7.41125  C 11.59912109375 7.68541666666667  11.484375 8.015  11.484375 8.4  C 11.484375 8.785  11.59912109375 9.11458333333333  11.82861328125 9.38875  C 12.05810546875 9.66291666666667  12.333984375 9.8  12.65625 9.8  C 12.978515625 9.8  13.25439453125 9.66291666666667  13.48388671875 9.38875  Z M 14.520263671875 6.173125  C 14.840087890625 6.55520833333333  15 7.0175  15 7.56  L 15 10.92  C 15 11.0016666666667  14.97802734375 11.06875  14.93408203125 11.12125  C 14.89013671875 11.17375  14.833984375 11.2  14.765625 11.2  L 14.0625 11.2  L 14.0625 12.32  C 14.0625 12.7866666666667  13.92578125 13.1833333333333  13.65234375 13.51  C 13.37890625 13.8366666666667  13.046875 14  12.65625 14  C 12.265625 14  11.93359375 13.8366666666667  11.66015625 13.51  C 11.38671875 13.1833333333333  11.25 12.7866666666667  11.25 12.32  L 11.25 11.2  L 3.75 11.2  L 3.75 12.32  C 3.75 12.7866666666667  3.61328125 13.1833333333333  3.33984375 13.51  C 3.06640625 13.8366666666667  2.734375 14  2.34375 14  C 1.953125 14  1.62109375 13.8366666666667  1.34765625 13.51  C 1.07421875 13.1833333333333  0.9375 12.7866666666667  0.9375 12.32  L 0.9375 11.2  L 0.234375 11.2  C 0.166015625 11.2  0.10986328125 11.17375  0.06591796875 11.12125  C 0.02197265625 11.06875  0 11.0016666666667  0 10.92  L 0 7.56  C 0 7.0175  0.159912109375 6.55520833333333  0.479736328125 6.173125  C 0.799560546875 5.79104166666667  1.1865234375 5.6  1.640625 5.6  L 1.845703125 5.6  L 2.61474609375 1.93375  C 2.72705078125 1.38541666666667  2.98095703125 0.926041666666665  3.37646484375 0.555625  C 3.77197265625 0.185208333333333  4.208984375 0  4.6875 0  L 10.3125 0  C 10.791015625 0  11.22802734375 0.185208333333333  11.62353515625 0.555625  C 12.01904296875 0.926041666666665  12.27294921875 1.38541666666667  12.38525390625 1.93375  L 13.154296875 5.6  L 13.359375 5.6  C 13.8134765625 5.6  14.200439453125 5.79104166666667  14.520263671875 6.173125  Z " fill-rule="nonzero" fill="#ffffff" stroke="none" transform="matrix(1 0 0 1 1137 13 )" />
  </g>
</svg>