<?xml version="1.0" encoding="utf-8"?>
<svg version="1.1" xmlns:xlink="http://www.w3.org/1999/xlink" width="30px" height="20px" xmlns="http://www.w3.org/2000/svg">
  <g transform="matrix(1 0 0 1 -694 -311 )">
    <path d="M 22.734375 18.1625  C 22.9627403846154 18.0041666666667  23.0769230769231 17.8166666666667  23.0769230769231 17.6  C 23.0769230769231 17.3833333333333  22.9627403846154 17.1958333333333  22.734375 17.0375  C 22.5060096153846 16.8791666666667  22.2355769230769 16.8  21.9230769230769 16.8  C 21.6105769230769 16.8  21.3401442307692 16.8791666666667  21.1117788461538 17.0375  C 20.8834134615385 17.1958333333333  20.7692307692308 17.3833333333333  20.7692307692308 17.6  C 20.7692307692308 17.8166666666667  20.8834134615385 18.0041666666667  21.1117788461538 18.1625  C 21.3401442307692 18.3208333333333  21.6105769230769 18.4  21.9230769230769 18.4  C 22.2355769230769 18.4  22.5060096153846 18.3208333333333  22.734375 18.1625  Z M 27.3497596153846 18.1625  C 27.578125 18.0041666666667  27.6923076923077 17.8166666666667  27.6923076923077 17.6  C 27.6923076923077 17.3833333333333  27.578125 17.1958333333333  27.3497596153846 17.0375  C 27.1213942307692 16.8791666666667  26.8509615384615 16.8  26.5384615384615 16.8  C 26.2259615384615 16.8  25.9555288461538 16.8791666666667  25.7271634615385 17.0375  C 25.4987980769231 17.1958333333333  25.3846153846154 17.3833333333333  25.3846153846154 17.6  C 25.3846153846154 17.8166666666667  25.4987980769231 18.0041666666667  25.7271634615385 18.1625  C 25.9555288461538 18.3208333333333  26.2259615384615 18.4  26.5384615384615 18.4  C 26.8509615384615 18.4  27.1213942307692 18.3208333333333  27.3497596153846 18.1625  Z M 29.4951923076923 13.95  C 29.8317307692308 14.1833333333333  30 14.4666666666667  30 14.8  L 30 18.8  C 30 19.1333333333333  29.8317307692308 19.4166666666667  29.4951923076923 19.65  C 29.1586538461539 19.8833333333333  28.75 20  28.2692307692308 20  L 1.73076923076923 20  C 1.25 20  0.841346153846154 19.8833333333333  0.504807692307692 19.65  C 0.168269230769231 19.4166666666667  0 19.1333333333333  0 18.8  L 0 14.8  C 0 14.4666666666667  0.168269230769231 14.1833333333333  0.504807692307692 13.95  C 0.841346153846154 13.7166666666667  1.25 13.6  1.73076923076923 13.6  L 9.42908653846154 13.6  C 9.68149038461539 14.0666666666667  10.1051682692308 14.45  10.7001201923077 14.75  C 11.2950721153846 15.05  11.9591346153846 15.2  12.6923076923077 15.2  L 17.3076923076923 15.2  C 18.0408653846154 15.2  18.7049278846154 15.05  19.2998798076923 14.75  C 19.8948317307692 14.45  20.3185096153846 14.0666666666667  20.5709134615385 13.6  L 28.2692307692308 13.6  C 28.75 13.6  29.1586538461539 13.7166666666667  29.4951923076923 13.95  Z M 23.8882211538462 5.8375  C 24.2608173076923 6.0875  24.3449519230769 6.375  24.140625 6.7  C 23.9362980769231 7.03333333333333  23.5817307692308 7.2  23.0769230769231 7.2  L 18.4615384615385 7.2  L 18.4615384615385 12.8  C 18.4615384615385 13.0166666666667  18.3473557692308 13.2041666666667  18.1189903846154 13.3625  C 17.890625 13.5208333333333  17.6201923076923 13.6  17.3076923076923 13.6  L 12.6923076923077 13.6  C 12.3798076923077 13.6  12.109375 13.5208333333333  11.8810096153846 13.3625  C 11.6526442307692 13.2041666666667  11.5384615384615 13.0166666666667  11.5384615384615 12.8  L 11.5384615384615 7.2  L 6.92307692307692 7.2  C 6.41826923076923 7.2  6.06370192307692 7.03333333333333  5.859375 6.7  C 5.65504807692308 6.375  5.73918269230769 6.0875  6.11177884615385 5.8375  L 14.1887019230769 0.237499999999999  C 14.4050480769231 0.0791666666666657  14.6754807692308 0  15 0  C 15.3245192307692 0  15.5949519230769 0.0791666666666657  15.8112980769231 0.237499999999999  L 23.8882211538462 5.8375  Z " fill-rule="nonzero" fill="#797979" stroke="none" transform="matrix(1 0 0 1 694 311 )" />
  </g>
</svg>