<?xml version="1.0" encoding="utf-8"?>
<svg version="1.1" xmlns:xlink="http://www.w3.org/1999/xlink" width="446px" height="95px" xmlns="http://www.w3.org/2000/svg">
  <g transform="matrix(1 0 0 1 -475 -292 )">
    <path d="M 476 304  A 11 11 0 0 1 487 293 L 909 293  A 11 11 0 0 1 920 304 L 920 375  A 11 11 0 0 1 909 386 L 487 386  A 11 11 0 0 1 476 375 L 476 304  Z " fill-rule="nonzero" fill="#ffffff" stroke="none" />
    <path d="M 475.5 304  A 11.5 11.5 0 0 1 487 292.5 L 909 292.5  A 11.5 11.5 0 0 1 920.5 304 L 920.5 375  A 11.5 11.5 0 0 1 909 386.5 L 487 386.5  A 11.5 11.5 0 0 1 475.5 375 L 475.5 304  Z " stroke-width="1" stroke="#8c8c8c" fill="none" stroke-opacity="0.352941176470588" />
  </g>
</svg>