<?xml version="1.0" encoding="utf-8"?>
<svg version="1.1" xmlns:xlink="http://www.w3.org/1999/xlink" width="237px" height="95px" viewBox="138 292  237 95" xmlns="http://www.w3.org/2000/svg">
  <path d="M 139 304  A 11 11 0 0 1 150 293 L 363 293  A 11 11 0 0 1 374 304 L 374 375  A 11 11 0 0 1 363 386 L 150 386  A 11 11 0 0 1 139 375 L 139 304  Z " fill-rule="nonzero" fill="#ffffff" stroke="none" />
  <path d="M 138.5 304  A 11.5 11.5 0 0 1 150 292.5 L 363 292.5  A 11.5 11.5 0 0 1 374.5 304 L 374.5 375  A 11.5 11.5 0 0 1 363 386.5 L 150 386.5  A 11.5 11.5 0 0 1 138.5 375 L 138.5 304  Z " stroke-width="1" stroke="#8c8c8c" fill="none" stroke-opacity="0.352941176470588" />
</svg>