<?xml version="1.0" encoding="utf-8"?>
<svg version="1.1" xmlns:xlink="http://www.w3.org/1999/xlink" width="9px" height="8px" xmlns="http://www.w3.org/2000/svg">
  <g transform="matrix(1 0 0 1 -677 -356 )">
    <path d="M 8.78787878787879 5.97979797979798  C 8.92929292929293 6.10549943883277  9 6.25813692480359  9 6.43771043771044  C 9 6.61728395061728  8.92929292929293 6.7699214365881  8.78787878787879 6.8956228956229  L 7.75757575757576 7.81144781144781  C 7.61616161616162 7.9371492704826  7.44444444444444 8  7.24242424242424 8  C 7.04040404040404 8  6.86868686868687 7.9371492704826  6.72727272727273 7.81144781144781  L 4.5 5.83164983164983  L 2.27272727272727 7.81144781144781  C 2.13131313131313 7.9371492704826  1.95959595959596 8  1.75757575757576 8  C 1.55555555555556 8  1.38383838383838 7.9371492704826  1.24242424242424 7.81144781144781  L 0.212121212121212 6.8956228956229  C 0.0707070707070708 6.7699214365881  0 6.61728395061728  0 6.43771043771044  C 0 6.25813692480359  0.0707070707070708 6.10549943883277  0.212121212121212 5.97979797979798  L 2.43939393939394 4  L 0.212121212121212 2.02020202020202  C 0.0707070707070708 1.89450056116723  0 1.74186307519641  0 1.56228956228956  C 0 1.38271604938272  0.0707070707070708 1.2300785634119  0.212121212121212 1.1043771043771  L 1.24242424242424 0.188552188552189  C 1.38383838383838 0.0628507295173959  1.55555555555556 0  1.75757575757576 0  C 1.95959595959596 0  2.13131313131313 0.0628507295173959  2.27272727272727 0.188552188552189  L 4.5 2.16835016835017  L 6.72727272727273 0.188552188552189  C 6.86868686868687 0.0628507295173959  7.04040404040404 0  7.24242424242424 0  C 7.44444444444444 0  7.61616161616162 0.0628507295173959  7.75757575757576 0.188552188552189  L 8.78787878787879 1.1043771043771  C 8.92929292929293 1.2300785634119  9 1.38271604938272  9 1.56228956228956  C 9 1.74186307519641  8.92929292929293 1.89450056116723  8.78787878787879 2.02020202020202  L 6.56060606060606 4  L 8.78787878787879 5.97979797979798  Z " fill-rule="nonzero" fill="#ff0000" stroke="none" transform="matrix(1 0 0 1 677 356 )" />
  </g>
</svg>