<?xml version="1.0" encoding="utf-8"?>
<svg version="1.1" xmlns:xlink="http://www.w3.org/1999/xlink" width="12px" height="12px" viewBox="1156 461  12 12" xmlns="http://www.w3.org/2000/svg">
  <path d="M 1156.5 464  A 2.5 2.5 0 0 1 1159 461.5 L 1165 461.5  A 2.5 2.5 0 0 1 1167.5 464 L 1167.5 470  A 2.5 2.5 0 0 1 1165 472.5 L 1159 472.5  A 2.5 2.5 0 0 1 1156.5 470 L 1156.5 464  Z " fill-rule="nonzero" fill="#f0f0f0" stroke="none" />
  <path d="M 1156.5 464  A 2.5 2.5 0 0 1 1159 461.5 L 1165 461.5  A 2.5 2.5 0 0 1 1167.5 464 L 1167.5 470  A 2.5 2.5 0 0 1 1165 472.5 L 1159 472.5  A 2.5 2.5 0 0 1 1156.5 470 L 1156.5 464  Z " stroke-width="1" stroke="#797979" fill="none" />
  <path d="M 1158.57142857143 467  L 1161.14285714286 469.571428571429  " stroke-width="2.57142857142857" stroke="#797979" fill="none" />
  <path d="M 1161.14285714286 469.571428571429  L 1165.42857142857 463.571428571429  " stroke-width="2.57142857142857" stroke="#797979" fill="none" />
</svg>