<?xml version="1.0" encoding="utf-8"?>
<svg version="1.1" xmlns:xlink="http://www.w3.org/1999/xlink" width="169px" height="36px" viewBox="752 449  169 36" xmlns="http://www.w3.org/2000/svg">
  <path d="M 753 454  A 4 4 0 0 1 757 450 L 916 450  A 4 4 0 0 1 920 454 L 920 480  A 4 4 0 0 1 916 484 L 757 484  A 4 4 0 0 1 753 480 L 753 454  Z " fill-rule="nonzero" fill="#f0f0f0" stroke="none" />
  <path d="M 752.5 454  A 4.5 4.5 0 0 1 757 449.5 L 916 449.5  A 4.5 4.5 0 0 1 920.5 454 L 920.5 480  A 4.5 4.5 0 0 1 916 484.5 L 757 484.5  A 4.5 4.5 0 0 1 752.5 480 L 752.5 454  Z " stroke-width="1" stroke="#dddddd" fill="none" stroke-opacity="0.996078431372549" />
</svg>