<?xml version="1.0" encoding="utf-8"?>
<svg version="1.1" xmlns:xlink="http://www.w3.org/1999/xlink" width="12px" height="12px" viewBox="1159 460  12 12" xmlns="http://www.w3.org/2000/svg">
  <path d="M 1159.5 463  A 2.5 2.5 0 0 1 1162 460.5 L 1168 460.5  A 2.5 2.5 0 0 1 1170.5 463 L 1170.5 469  A 2.5 2.5 0 0 1 1168 471.5 L 1162 471.5  A 2.5 2.5 0 0 1 1159.5 469 L 1159.5 463  Z " fill-rule="nonzero" fill="#ffffff" stroke="none" />
  <path d="M 1159.5 463  A 2.5 2.5 0 0 1 1162 460.5 L 1168 460.5  A 2.5 2.5 0 0 1 1170.5 463 L 1170.5 469  A 2.5 2.5 0 0 1 1168 471.5 L 1162 471.5  A 2.5 2.5 0 0 1 1159.5 469 L 1159.5 463  Z " stroke-width="1" stroke="#797979" fill="none" />
</svg>