<?xml version="1.0" encoding="utf-8"?>
<svg version="1.1" xmlns:xlink="http://www.w3.org/1999/xlink" width="169px" height="36px" viewBox="757 448  169 36" xmlns="http://www.w3.org/2000/svg">
  <path d="M 758 453  A 4 4 0 0 1 762 449 L 921 449  A 4 4 0 0 1 925 453 L 925 479  A 4 4 0 0 1 921 483 L 762 483  A 4 4 0 0 1 758 479 L 758 453  Z " fill-rule="nonzero" fill="#f0f0f0" stroke="none" />
  <path d="M 757.5 453  A 4.5 4.5 0 0 1 762 448.5 L 921 448.5  A 4.5 4.5 0 0 1 925.5 453 L 925.5 479  A 4.5 4.5 0 0 1 921 483.5 L 762 483.5  A 4.5 4.5 0 0 1 757.5 479 L 757.5 453  Z " stroke-width="1" stroke="#dddddd" fill="none" stroke-opacity="0.972549019607843" />
</svg>