<?xml version="1.0" encoding="utf-8"?>
<svg version="1.1" xmlns:xlink="http://www.w3.org/1999/xlink" width="222px" height="33px" viewBox="978 57  222 33" xmlns="http://www.w3.org/2000/svg">
  <path d="M 979 62  A 4 4 0 0 1 983 58 L 1195 58  A 4 4 0 0 1 1199 62 L 1199 85  A 4 4 0 0 1 1195 89 L 983 89  A 4 4 0 0 1 979 85 L 979 62  Z " fill-rule="nonzero" fill="#ffffff" stroke="none" fill-opacity="0.996078431372549" />
  <path d="M 978.5 62  A 4.5 4.5 0 0 1 983 57.5 L 1195 57.5  A 4.5 4.5 0 0 1 1199.5 62 L 1199.5 85  A 4.5 4.5 0 0 1 1195 89.5 L 983 89.5  A 4.5 4.5 0 0 1 978.5 85 L 978.5 62  Z " stroke-width="1" stroke="#8c8c8c" fill="none" stroke-opacity="0.298039215686275" />
</svg>