<?xml version="1.0" encoding="utf-8"?>
<svg version="1.1" xmlns:xlink="http://www.w3.org/1999/xlink" width="588px" height="153px" viewBox="612 152  588 153" xmlns="http://www.w3.org/2000/svg">
  <path d="M 613 157  A 4 4 0 0 1 617 153 L 1195 153  A 4 4 0 0 1 1199 157 L 1199 300  A 4 4 0 0 1 1195 304 L 617 304  A 4 4 0 0 1 613 300 L 613 157  Z " fill-rule="nonzero" fill="#ffffff" stroke="none" fill-opacity="0.996078431372549" />
  <path d="M 612.5 157  A 4.5 4.5 0 0 1 617 152.5 L 1195 152.5  A 4.5 4.5 0 0 1 1199.5 157 L 1199.5 300  A 4.5 4.5 0 0 1 1195 304.5 L 617 304.5  A 4.5 4.5 0 0 1 612.5 300 L 612.5 157  Z " stroke-width="1" stroke="#8c8c8c" fill="none" stroke-opacity="0.352941176470588" />
</svg>