<?xml version="1.0" encoding="utf-8"?>
<svg version="1.1" xmlns:xlink="http://www.w3.org/1999/xlink" width="588px" height="95px" xmlns="http://www.w3.org/2000/svg">
  <g transform="matrix(1 0 0 1 -612 -365 )">
    <path d="M 613 370  A 4 4 0 0 1 617 366 L 1195 366  A 4 4 0 0 1 1199 370 L 1199 455  A 4 4 0 0 1 1195 459 L 617 459  A 4 4 0 0 1 613 455 L 613 370  Z " fill-rule="nonzero" fill="#ffffff" stroke="none" fill-opacity="0.996078431372549" />
    <path d="M 612.5 370  A 4.5 4.5 0 0 1 617 365.5 L 1195 365.5  A 4.5 4.5 0 0 1 1199.5 370 L 1199.5 455  A 4.5 4.5 0 0 1 1195 459.5 L 617 459.5  A 4.5 4.5 0 0 1 612.5 455 L 612.5 370  Z " stroke-width="1" stroke="#8c8c8c" fill="none" stroke-opacity="0.352941176470588" />
  </g>
</svg>