<?xml version="1.0" encoding="utf-8"?>
<svg version="1.1" xmlns:xlink="http://www.w3.org/1999/xlink" width="471px" height="175px" viewBox="791 77  471 175" xmlns="http://www.w3.org/2000/svg">
  <path d="M 792 89  A 11 11 0 0 1 803 78 L 1250 78  A 11 11 0 0 1 1261 89 L 1261 240  A 11 11 0 0 1 1250 251 L 803 251  A 11 11 0 0 1 792 240 L 792 89  Z " fill-rule="nonzero" fill="#ffffff" stroke="none" />
  <path d="M 791.5 89  A 11.5 11.5 0 0 1 803 77.5 L 1250 77.5  A 11.5 11.5 0 0 1 1261.5 89 L 1261.5 240  A 11.5 11.5 0 0 1 1250 251.5 L 803 251.5  A 11.5 11.5 0 0 1 791.5 240 L 791.5 89  Z " stroke-width="1" stroke="#dddddd" fill="none" stroke-opacity="0.352941176470588" />
</svg>