<?xml version="1.0" encoding="utf-8"?>
<svg version="1.1" xmlns:xlink="http://www.w3.org/1999/xlink" width="471px" height="83px" xmlns="http://www.w3.org/2000/svg">
  <g transform="matrix(1 0 0 1 -791 -302 )">
    <path d="M 792 314  A 11 11 0 0 1 803 303 L 1250 303  A 11 11 0 0 1 1261 314 L 1261 373  A 11 11 0 0 1 1250 384 L 803 384  A 11 11 0 0 1 792 373 L 792 314  Z " fill-rule="nonzero" fill="#ffffff" stroke="none" fill-opacity="0.996078431372549" />
    <path d="M 791.5 314  A 11.5 11.5 0 0 1 803 302.5 L 1250 302.5  A 11.5 11.5 0 0 1 1261.5 314 L 1261.5 373  A 11.5 11.5 0 0 1 1250 384.5 L 803 384.5  A 11.5 11.5 0 0 1 791.5 373 L 791.5 314  Z " stroke-width="1" stroke="#dddddd" fill="none" stroke-opacity="0.352941176470588" />
  </g>
</svg>