<?xml version="1.0" encoding="utf-8"?>
<svg version="1.1" xmlns:xlink="http://www.w3.org/1999/xlink" width="18px" height="14px" xmlns="http://www.w3.org/2000/svg">
  <g transform="matrix(1 0 0 1 -114 -121 )">
    <path d="M 11.5714285714286 10.96484375  C 11.6584821428571 10.96484375  11.7354910714286 10.9344618055556  11.8024553571429 10.8736979166667  L 13.2689732142857 9.54296875  C 13.3359375 9.48220486111111  13.3694196428571 9.41232638888889  13.3694196428571 9.33333333333333  C 13.3694196428571 9.25434027777778  13.3359375 9.18446180555555  13.2689732142857 9.12369791666667  L 10.9285714285714 7  L 13.2689732142857 4.87630208333333  C 13.3359375 4.81553819444444  13.3694196428571 4.74565972222222  13.3694196428571 4.66666666666667  C 13.3694196428571 4.58767361111111  13.3359375 4.51779513888889  13.2689732142857 4.45703125  L 11.8024553571429 3.12630208333333  C 11.7354910714286 3.06553819444444  11.6584821428571 3.03515625  11.5714285714286 3.03515625  C 11.484375 3.03515625  11.4073660714286 3.06553819444444  11.3404017857143 3.12630208333333  L 9 5.25  L 6.65959821428571 3.12630208333333  C 6.59263392857143 3.06553819444444  6.515625 3.03515625  6.42857142857143 3.03515625  C 6.34151785714286 3.03515625  6.26450892857143 3.06553819444444  6.19754464285714 3.12630208333333  L 4.73102678571429 4.45703125  C 4.6640625 4.51779513888889  4.63058035714286 4.58767361111111  4.63058035714286 4.66666666666667  C 4.63058035714286 4.74565972222222  4.6640625 4.81553819444444  4.73102678571429 4.87630208333333  L 7.07142857142857 7  L 4.73102678571429 9.12369791666667  C 4.6640625 9.18446180555555  4.63058035714286 9.25434027777778  4.63058035714286 9.33333333333333  C 4.63058035714286 9.41232638888889  4.6640625 9.48220486111111  4.73102678571429 9.54296875  L 6.19754464285714 10.8736979166667  C 6.26450892857143 10.9344618055556  6.34151785714286 10.96484375  6.42857142857143 10.96484375  C 6.515625 10.96484375  6.59263392857143 10.9344618055556  6.65959821428571 10.8736979166667  L 9 8.75  L 11.3404017857143 10.8736979166667  C 11.4073660714286 10.9344618055556  11.484375 10.96484375  11.5714285714286 10.96484375  Z M 17.5279017857143 0.428385416666667  C 17.8426339285714 0.713975694444444  18 1.05729166666667  18 1.45833333333333  L 18 12.5416666666667  C 18 12.9427083333333  17.8426339285714 13.2860243055556  17.5279017857143 13.5716145833333  C 17.2131696428571 13.8572048611111  16.8348214285714 14  16.3928571428571 14  L 1.60714285714286 14  C 1.16517857142857 14  0.786830357142857 13.8572048611111  0.472098214285714 13.5716145833333  C 0.157366071428571 13.2860243055556  0 12.9427083333333  0 12.5416666666667  L 0 1.45833333333333  C 0 1.05729166666667  0.157366071428571 0.713975694444444  0.472098214285714 0.428385416666667  C 0.786830357142857 0.142795138888888  1.16517857142857 0  1.60714285714286 0  L 16.3928571428571 0  C 16.8348214285714 0  17.2131696428571 0.142795138888888  17.5279017857143 0.428385416666667  Z " fill-rule="nonzero" fill="#ff0000" stroke="none" transform="matrix(1 0 0 1 114 121 )" />
  </g>
</svg>