<?xml version="1.0" encoding="utf-8"?>
<svg version="1.1" xmlns:xlink="http://www.w3.org/1999/xlink" width="18px" height="14px" xmlns="http://www.w3.org/2000/svg">
  <g transform="matrix(1 0 0 1 -114 -53 )">
    <path d="M 7.2 8.75  L 7.2 9.8  L 10.8 9.8  L 10.8 8.75  L 9.6 8.75  L 9.6 3.85  L 8.53125 3.85  L 7.14375 5.3484375  L 7.865625 6.2234375  C 8.128125 5.95364583333333  8.3 5.74583333333333  8.38125 5.6  L 8.4 5.6  L 8.4 8.75  L 7.2 8.75  Z M 11.803125 5.446875  C 11.934375 5.971875  12 6.48958333333333  12 7  C 12 7.51041666666667  11.934375 8.028125  11.803125 8.553125  C 11.671875 9.078125  11.4859375 9.56666666666666  11.2453125 10.01875  C 11.0046875 10.4708333333333  10.6875 10.8390625  10.29375 11.1234375  C 9.9 11.4078125  9.46875 11.55  9 11.55  C 8.53125 11.55  8.1 11.4078125  7.70625 11.1234375  C 7.3125 10.8390625  6.9953125 10.4708333333333  6.7546875 10.01875  C 6.5140625 9.56666666666666  6.328125 9.078125  6.196875 8.553125  C 6.065625 8.028125  6 7.51041666666667  6 7  C 6 6.48958333333333  6.065625 5.971875  6.196875 5.446875  C 6.328125 4.921875  6.5140625 4.43333333333333  6.7546875 3.98125  C 6.9953125 3.52916666666667  7.3125 3.1609375  7.70625 2.8765625  C 8.1 2.5921875  8.53125 2.45  9 2.45  C 9.46875 2.45  9.9 2.5921875  10.29375 2.8765625  C 10.6875 3.1609375  11.0046875 3.52916666666667  11.2453125 3.98125  C 11.4859375 4.43333333333333  11.671875 4.921875  11.803125 5.446875  Z M 15.103125 10.6203125  C 15.571875 10.0734375  16.1375 9.8  16.8 9.8  L 16.8 4.2  C 16.1375 4.2  15.571875 3.9265625  15.103125 3.3796875  C 14.634375 2.8328125  14.4 2.17291666666666  14.4 1.4  L 3.6 1.4  C 3.6 2.17291666666666  3.365625 2.8328125  2.896875 3.3796875  C 2.428125 3.9265625  1.8625 4.2  1.2 4.2  L 1.2 9.8  C 1.8625 9.8  2.428125 10.0734375  2.896875 10.6203125  C 3.365625 11.1671875  3.6 11.8270833333333  3.6 12.6  L 14.4 12.6  C 14.4 11.8270833333333  14.634375 11.1671875  15.103125 10.6203125  Z M 17.821875 0.207812500000001  C 17.940625 0.346354166666666  18 0.510416666666666  18 0.700000000000001  L 18 13.3  C 18 13.4895833333333  17.940625 13.6536458333333  17.821875 13.7921875  C 17.703125 13.9307291666667  17.5625 14  17.4 14  L 0.6 14  C 0.4375 14  0.296875 13.9307291666667  0.178125 13.7921875  C 0.059375 13.6536458333333  0 13.4895833333333  0 13.3  L 0 0.700000000000001  C 0 0.510416666666666  0.059375 0.346354166666666  0.178125 0.207812500000001  C 0.296875 0.0692708333333325  0.4375 0  0.6 0  L 17.4 0  C 17.5625 0  17.703125 0.0692708333333325  17.821875 0.207812500000001  Z " fill-rule="nonzero" fill="#169b31" stroke="none" fill-opacity="0.996078431372549" transform="matrix(1 0 0 1 114 53 )" />
  </g>
</svg>