<?xml version="1.0" encoding="utf-8"?>
<svg version="1.1" xmlns:xlink="http://www.w3.org/1999/xlink" width="18px" height="14px" xmlns="http://www.w3.org/2000/svg">
  <g transform="matrix(1 0 0 1 -114 -17 )">
    <path d="M 10.39453125 3.58203125  C 10.46484375 3.63671875  10.5 3.70659722222222  10.5 3.79166666666667  L 10.5 7.875  C 10.5 7.96006944444444  10.46484375 8.02994791666667  10.39453125 8.08463541666667  C 10.32421875 8.13932291666667  10.234375 8.16666666666667  10.125 8.16666666666667  L 6.375 8.16666666666667  C 6.265625 8.16666666666667  6.17578125 8.13932291666667  6.10546875 8.08463541666667  C 6.03515625 8.02994791666667  6 7.96006944444444  6 7.875  L 6 7.29166666666667  C 6 7.20659722222222  6.03515625 7.13671875  6.10546875 7.08203125  C 6.17578125 7.02734375  6.265625 7  6.375 7  L 9 7  L 9 3.79166666666667  C 9 3.70659722222222  9.03515625 3.63671875  9.10546875 3.58203125  C 9.17578125 3.52734375  9.265625 3.5  9.375 3.5  L 10.125 3.5  C 10.234375 3.5  10.32421875 3.52734375  10.39453125 3.58203125  Z M 14.51953125 9.48828125  C 15.08984375 8.72873263888889  15.375 7.89930555555556  15.375 7  C 15.375 6.10069444444444  15.08984375 5.27126736111111  14.51953125 4.51171875  C 13.94921875 3.75217013888889  13.17578125 3.15060763888889  12.19921875 2.70703125  C 11.22265625 2.26345486111111  10.15625 2.04166666666667  9 2.04166666666667  C 7.84375 2.04166666666667  6.77734375 2.26345486111111  5.80078125 2.70703125  C 4.82421875 3.15060763888889  4.05078125 3.75217013888889  3.48046875 4.51171875  C 2.91015625 5.27126736111111  2.625 6.10069444444444  2.625 7  C 2.625 7.89930555555556  2.91015625 8.72873263888889  3.48046875 9.48828125  C 4.05078125 10.2478298611111  4.82421875 10.8493923611111  5.80078125 11.29296875  C 6.77734375 11.7365451388889  7.84375 11.9583333333333  9 11.9583333333333  C 10.15625 11.9583333333333  11.22265625 11.7365451388889  12.19921875 11.29296875  C 13.17578125 10.8493923611111  13.94921875 10.2478298611111  14.51953125 9.48828125  Z M 16.79296875 3.486328125  C 17.59765625 4.55881076388889  18 5.73003472222222  18 7  C 18 8.26996527777778  17.59765625 9.44118923611111  16.79296875 10.513671875  C 15.98828125 11.5861545138889  14.896484375 12.4353298611111  13.517578125 13.0611979166667  C 12.138671875 13.6870659722222  10.6328125 14  9 14  C 7.3671875 14  5.861328125 13.6870659722222  4.482421875 13.0611979166667  C 3.103515625 12.4353298611111  2.01171875 11.5861545138889  1.20703125 10.513671875  C 0.40234375 9.44118923611111  0 8.26996527777778  0 7  C 0 5.73003472222222  0.40234375 4.55881076388889  1.20703125 3.486328125  C 2.01171875 2.41384548611111  3.103515625 1.56467013888889  4.482421875 0.938802083333333  C 5.861328125 0.312934027777777  7.3671875 0  9 0  C 10.6328125 0  12.138671875 0.312934027777777  13.517578125 0.938802083333333  C 14.896484375 1.56467013888889  15.98828125 2.41384548611111  16.79296875 3.486328125  Z " fill-rule="nonzero" fill="#5000ff" stroke="none" transform="matrix(1 0 0 1 114 17 )" />
  </g>
</svg>