<?xml version="1.0" encoding="utf-8"?>
<svg version="1.1" xmlns:xlink="http://www.w3.org/1999/xlink" width="1537px" height="197px" xmlns="http://www.w3.org/2000/svg">
  <g transform="matrix(1 0 0 1 -158 -349 )">
    <path d="M 159 369  A 19 19 0 0 1 178 350 L 1675 350  A 19 19 0 0 1 1694 369 L 1694 526  A 19 19 0 0 1 1675 545 L 178 545  A 19 19 0 0 1 159 526 L 159 369  Z " fill-rule="nonzero" fill="#ffffff" stroke="none" />
    <path d="M 158.5 369  A 19.5 19.5 0 0 1 178 349.5 L 1675 349.5  A 19.5 19.5 0 0 1 1694.5 369 L 1694.5 526  A 19.5 19.5 0 0 1 1675 545.5 L 178 545.5  A 19.5 19.5 0 0 1 158.5 526 L 158.5 369  Z " stroke-width="1" stroke="#8c8c8c" fill="none" stroke-opacity="0.349019607843137" />
  </g>
</svg>