<?xml version="1.0" encoding="utf-8"?>
<svg version="1.1" xmlns:xlink="http://www.w3.org/1999/xlink" width="18px" height="20px" xmlns="http://www.w3.org/2000/svg">
  <g transform="matrix(1 0 0 1 -158 -623 )">
    <path d="M 17.40625 9.12109375  C 17.8020833333333 9.36848958333333  18 9.66145833333333  18 10  C 18 10.3385416666667  17.8020833333333 10.6315104166667  17.40625 10.87890625  L 3.40625 19.62890625  C 3.01041666666667 19.8763020833333  2.54166666666667 20  2 20  C 1.45833333333333 20  0.989583333333333 19.8763020833333  0.59375 19.62890625  C 0.197916666666667 19.3815104166667  0 19.0885416666667  0 18.75  L 0 1.25  C 0 0.91145833333333  0.197916666666667 0.61848958333333  0.59375 0.37109375  C 0.989583333333333 0.123697916666665  1.45833333333333 0  2 0  C 2.54166666666667 0  3.01041666666667 0.123697916666665  3.40625 0.37109375  L 17.40625 9.12109375  Z " fill-rule="nonzero" fill="#333333" stroke="none" transform="matrix(1 0 0 1 158 623 )" />
  </g>
</svg>