<?xml version="1.0" encoding="utf-8"?>
<svg version="1.1" xmlns:xlink="http://www.w3.org/1999/xlink" width="61px" height="56px" xmlns="http://www.w3.org/2000/svg">
  <g transform="matrix(1 0 0 1 -121 -72 )">
    <path d="M 18.6540178571429 2.21875  C 22.421130952381 0.739583333333333  26.3697916666667 0  30.5 0  C 34.6302083333333 0  38.5788690476191 0.739583333333333  42.3459821428571 2.21875  C 46.1130952380952 3.69791666666667  49.3582589285714 5.6875  52.0814732142857 8.1875  C 54.8046875 10.6875  56.971912202381 13.6666666666667  58.5831473214286 17.125  C 60.1943824404762 20.5833333333333  61 24.2083333333333  61 28  C 61 31.7708333333333  60.2000558035714 35.3854166666667  58.6001674107143 38.84375  C 57.0002790178571 42.3020833333333  54.8387276785714 45.28125  52.1155133928571 47.78125  C 49.3922991071429 50.28125  46.1471354166667 52.2760416666667  42.3800223214286 53.765625  C 38.6129092261905 55.2552083333333  34.6529017857143 56  30.5 56  C 26.3470982142857 56  22.3870907738095 55.2604166666667  18.6199776785714 53.78125  C 14.8528645833333 52.3020833333333  11.6133742559524 50.3072916666667  8.90150669642857 47.796875  C 6.18963913690476 45.2864583333333  4.02808779761905 42.3072916666667  2.41685267857143 38.859375  C 0.805617559523809 35.4114583333333  0 31.7916666666667  0 28  C 0 24.2083333333333  0.805617559523809 20.5833333333333  2.41685267857143 17.125  C 4.02808779761905 13.6666666666667  6.1953125 10.6875  8.91852678571429 8.1875  C 11.6417410714286 5.6875  14.8869047619048 3.69791666666667  18.6540178571429 2.21875  Z M 41.1545758928571 32  C 46.6010044642857 32  50.0731026785714 35.40625  51.5708705357143 42.21875  C 54.9521949404762 37.9479166666667  56.6428571428571 33.2083333333333  56.6428571428571 28  C 56.6428571428571 24.75  55.9507068452381 21.6458333333333  54.56640625 18.6875  C 53.1821056547619 15.7291666666667  51.3212425595238 13.1770833333333  48.9838169642857 11.03125  C 46.6463913690476 8.88541666666667  43.866443452381 7.17708333333333  40.6439732142857 5.90625  C 37.4215029761905 4.63541666666666  34.0401785714286 4  30.5 4  C 26.9598214285714 4  23.5784970238095 4.63541666666666  20.3560267857143 5.90625  C 17.1335565476191 7.17708333333333  14.3536086309524 8.88541666666667  12.0161830357143 11.03125  C 9.67875744047619 13.1770833333333  7.8178943452381 15.7291666666667  6.43359375 18.6875  C 5.04929315476191 21.6458333333333  4.35714285714286 24.75  4.35714285714286 28  C 4.35714285714286 33.2083333333333  6.04780505952381 37.9479166666667  9.42912946428571 42.21875  C 10.9268973214286 35.40625  14.3989955357143 32  19.8454241071429 32  C 22.8182663690476 34.6666666666667  26.3697916666667 36  30.5 36  C 34.6302083333333 36  38.1817336309524 34.6666666666667  41.1545758928571 32  Z M 39.7419084821429 30.484375  C 42.294921875 28.140625  43.5714285714286 25.3125  43.5714285714286 22  C 43.5714285714286 18.6875  42.294921875 15.859375  39.7419084821429 13.515625  C 37.1888950892857 11.171875  34.1082589285714 10  30.5 10  C 26.8917410714286 10  23.8111049107143 11.171875  21.2580915178571 13.515625  C 18.705078125 15.859375  17.4285714285714 18.6875  17.4285714285714 22  C 17.4285714285714 25.3125  18.705078125 28.140625  21.2580915178571 30.484375  C 23.8111049107143 32.828125  26.8917410714286 34  30.5 34  C 34.1082589285714 34  37.1888950892857 32.828125  39.7419084821429 30.484375  Z " fill-rule="nonzero" fill="#a408bf" stroke="none" transform="matrix(1 0 0 1 121 72 )" />
  </g>
</svg>