<?xml version="1.0" encoding="utf-8"?>
<svg version="1.1" xmlns:xlink="http://www.w3.org/1999/xlink" width="178px" height="36px" viewBox="347 213  178 36" xmlns="http://www.w3.org/2000/svg">
  <path d="M 348 223  A 9 9 0 0 1 357 214 L 515 214  A 9 9 0 0 1 524 223 L 524 239  A 9 9 0 0 1 515 248 L 357 248  A 9 9 0 0 1 348 239 L 348 223  Z " fill-rule="nonzero" fill="#f0f0f0" stroke="none" />
  <path d="M 347.5 223  A 9.5 9.5 0 0 1 357 213.5 L 515 213.5  A 9.5 9.5 0 0 1 524.5 223 L 524.5 239  A 9.5 9.5 0 0 1 515 248.5 L 357 248.5  A 9.5 9.5 0 0 1 347.5 239 L 347.5 223  Z " stroke-width="1" stroke="#999999" fill="none" stroke-opacity="0.203921568627451" />
</svg>