<?xml version="1.0" encoding="utf-8"?>
<svg version="1.1" xmlns:xlink="http://www.w3.org/1999/xlink" width="1721px" height="800px" xmlns="http://www.w3.org/2000/svg">
  <g transform="matrix(1 0 0 1 0 -13 )">
    <path d="M 1 48  A 34 34 0 0 1 35 14 L 1686 14  A 34 34 0 0 1 1720 48 L 1720 778  A 34 34 0 0 1 1686 812 L 35 812  A 34 34 0 0 1 1 778 L 1 48  Z " fill-rule="nonzero" fill="#ffffff" stroke="none" />
    <path d="M 0.5 48  A 34.5 34.5 0 0 1 35 13.5 L 1686 13.5  A 34.5 34.5 0 0 1 1720.5 48 L 1720.5 778  A 34.5 34.5 0 0 1 1686 812.5 L 35 812.5  A 34.5 34.5 0 0 1 0.5 778 L 0.5 48  Z " stroke-width="1" stroke="#8c8c8c" fill="none" stroke-opacity="0.349019607843137" />
  </g>
</svg>