<?xml version="1.0" encoding="utf-8"?>
<svg version="1.1" xmlns:xlink="http://www.w3.org/1999/xlink" width="307px" height="95px" viewBox="1089 342  307 95" xmlns="http://www.w3.org/2000/svg">
  <path d="M 1090 362  A 19 19 0 0 1 1109 343 L 1376 343  A 19 19 0 0 1 1395 362 L 1395 417  A 19 19 0 0 1 1376 436 L 1109 436  A 19 19 0 0 1 1090 417 L 1090 362  Z " fill-rule="nonzero" fill="#ffffff" stroke="none" />
  <path d="M 1089.5 362  A 19.5 19.5 0 0 1 1109 342.5 L 1376 342.5  A 19.5 19.5 0 0 1 1395.5 362 L 1395.5 417  A 19.5 19.5 0 0 1 1376 436.5 L 1109 436.5  A 19.5 19.5 0 0 1 1089.5 417 L 1089.5 362  Z " stroke-width="1" stroke="#8c8c8c" fill="none" stroke-opacity="0.352941176470588" />
</svg>