<?xml version="1.0" encoding="utf-8"?>
<svg version="1.1" xmlns:xlink="http://www.w3.org/1999/xlink" width="307px" height="95px" xmlns="http://www.w3.org/2000/svg">
  <g transform="matrix(1 0 0 1 -470 -342 )">
    <path d="M 471 362  A 19 19 0 0 1 490 343 L 757 343  A 19 19 0 0 1 776 362 L 776 417  A 19 19 0 0 1 757 436 L 490 436  A 19 19 0 0 1 471 417 L 471 362  Z " fill-rule="nonzero" fill="#ffffff" stroke="none" />
    <path d="M 470.5 362  A 19.5 19.5 0 0 1 490 342.5 L 757 342.5  A 19.5 19.5 0 0 1 776.5 362 L 776.5 417  A 19.5 19.5 0 0 1 757 436.5 L 490 436.5  A 19.5 19.5 0 0 1 470.5 417 L 470.5 362  Z " stroke-width="1" stroke="#8c8c8c" fill="none" stroke-opacity="0.352941176470588" />
  </g>
</svg>