<?xml version="1.0" encoding="utf-8"?>
<svg version="1.1" xmlns:xlink="http://www.w3.org/1999/xlink" width="635px" height="69px" viewBox="760 464  635 69" xmlns="http://www.w3.org/2000/svg">
  <path d="M 761 484  A 19 19 0 0 1 780 465 L 1375 465  A 19 19 0 0 1 1394 484 L 1394 513  A 19 19 0 0 1 1375 532 L 780 532  A 19 19 0 0 1 761 513 L 761 484  Z " fill-rule="nonzero" fill="#f0f0f0" stroke="none" />
  <path d="M 760.5 484  A 19.5 19.5 0 0 1 780 464.5 L 1375 464.5  A 19.5 19.5 0 0 1 1394.5 484 L 1394.5 513  A 19.5 19.5 0 0 1 1375 532.5 L 780 532.5  A 19.5 19.5 0 0 1 760.5 513 L 760.5 484  Z " stroke-width="1" stroke="#8c8c8c" fill="none" stroke-opacity="0.352941176470588" />
</svg>