<?xml version="1.0" encoding="utf-8"?>
<svg version="1.1" xmlns:xlink="http://www.w3.org/1999/xlink" width="356px" height="93px" viewBox="14 335  356 93" xmlns="http://www.w3.org/2000/svg">
  <path d="M 15 355  A 19 19 0 0 1 34 336 L 350 336  A 19 19 0 0 1 369 355 L 369 408  A 19 19 0 0 1 350 427 L 34 427  A 19 19 0 0 1 15 408 L 15 355  Z " fill-rule="nonzero" fill="#f0f0f0" stroke="none" />
  <path d="M 14.5 355  A 19.5 19.5 0 0 1 34 335.5 L 350 335.5  A 19.5 19.5 0 0 1 369.5 355 L 369.5 408  A 19.5 19.5 0 0 1 350 427.5 L 34 427.5  A 19.5 19.5 0 0 1 14.5 408 L 14.5 355  Z " stroke-width="1" stroke="#8c8c8c" fill="none" stroke-opacity="0.352941176470588" />
</svg>