<?xml version="1.0" encoding="utf-8"?>
<svg version="1.1" xmlns:xlink="http://www.w3.org/1999/xlink" width="304px" height="93px" xmlns="http://www.w3.org/2000/svg">
  <g transform="matrix(1 0 0 1 -498 -335 )">
    <path d="M 499 355  A 19 19 0 0 1 518 336 L 782 336  A 19 19 0 0 1 801 355 L 801 408  A 19 19 0 0 1 782 427 L 518 427  A 19 19 0 0 1 499 408 L 499 355  Z " fill-rule="nonzero" fill="#ffffff" stroke="none" />
    <path d="M 498.5 355  A 19.5 19.5 0 0 1 518 335.5 L 782 335.5  A 19.5 19.5 0 0 1 801.5 355 L 801.5 408  A 19.5 19.5 0 0 1 782 427.5 L 518 427.5  A 19.5 19.5 0 0 1 498.5 408 L 498.5 355  Z " stroke-width="1" stroke="#8c8c8c" fill="none" stroke-opacity="0.352941176470588" />
  </g>
</svg>