<?xml version="1.0" encoding="utf-8"?>
<svg version="1.1" xmlns:xlink="http://www.w3.org/1999/xlink" width="356px" height="90px" viewBox="31 335  356 90" xmlns="http://www.w3.org/2000/svg">
  <path d="M 32 355  A 19 19 0 0 1 51 336 L 367 336  A 19 19 0 0 1 386 355 L 386 405  A 19 19 0 0 1 367 424 L 51 424  A 19 19 0 0 1 32 405 L 32 355  Z " fill-rule="nonzero" fill="#f0f0f0" stroke="none" />
  <path d="M 31.5 355  A 19.5 19.5 0 0 1 51 335.5 L 367 335.5  A 19.5 19.5 0 0 1 386.5 355 L 386.5 405  A 19.5 19.5 0 0 1 367 424.5 L 51 424.5  A 19.5 19.5 0 0 1 31.5 405 L 31.5 355  Z " stroke-width="1" stroke="#8c8c8c" fill="none" stroke-opacity="0.352941176470588" />
</svg>