<?xml version="1.0" encoding="utf-8"?>
<svg version="1.1" xmlns:xlink="http://www.w3.org/1999/xlink" width="516px" height="95px" xmlns="http://www.w3.org/2000/svg">
  <g transform="matrix(1 0 0 1 -537 -335 )">
    <path d="M 538 355  A 19 19 0 0 1 557 336 L 1033 336  A 19 19 0 0 1 1052 355 L 1052 410  A 19 19 0 0 1 1033 429 L 557 429  A 19 19 0 0 1 538 410 L 538 355  Z " fill-rule="nonzero" fill="#ffffff" stroke="none" />
    <path d="M 537.5 355  A 19.5 19.5 0 0 1 557 335.5 L 1033 335.5  A 19.5 19.5 0 0 1 1052.5 355 L 1052.5 410  A 19.5 19.5 0 0 1 1033 429.5 L 557 429.5  A 19.5 19.5 0 0 1 537.5 410 L 537.5 355  Z " stroke-width="1" stroke="#8c8c8c" fill="none" stroke-opacity="0.352941176470588" />
  </g>
</svg>