<?xml version="1.0" encoding="utf-8"?>
<svg version="1.1" xmlns:xlink="http://www.w3.org/1999/xlink" width="517px" height="87px" viewBox="877 463  517 87" xmlns="http://www.w3.org/2000/svg">
  <path d="M 878 483  A 19 19 0 0 1 897 464 L 1374 464  A 19 19 0 0 1 1393 483 L 1393 530  A 19 19 0 0 1 1374 549 L 897 549  A 19 19 0 0 1 878 530 L 878 483  Z " fill-rule="nonzero" fill="#ffffff" stroke="none" />
  <path d="M 877.5 483  A 19.5 19.5 0 0 1 897 463.5 L 1374 463.5  A 19.5 19.5 0 0 1 1393.5 483 L 1393.5 530  A 19.5 19.5 0 0 1 1374 549.5 L 897 549.5  A 19.5 19.5 0 0 1 877.5 530 L 877.5 483  Z " stroke-width="1" stroke="#8c8c8c" fill="none" stroke-opacity="0.352941176470588" />
</svg>