<?xml version="1.0" encoding="utf-8"?>
<svg version="1.1" xmlns:xlink="http://www.w3.org/1999/xlink" width="542px" height="87px" xmlns="http://www.w3.org/2000/svg">
  <g transform="matrix(1 0 0 1 -250 -463 )">
    <path d="M 251 483  A 19 19 0 0 1 270 464 L 772 464  A 19 19 0 0 1 791 483 L 791 530  A 19 19 0 0 1 772 549 L 270 549  A 19 19 0 0 1 251 530 L 251 483  Z " fill-rule="nonzero" fill="#ffffff" stroke="none" />
    <path d="M 250.5 483  A 19.5 19.5 0 0 1 270 463.5 L 772 463.5  A 19.5 19.5 0 0 1 791.5 483 L 791.5 530  A 19.5 19.5 0 0 1 772 549.5 L 270 549.5  A 19.5 19.5 0 0 1 250.5 530 L 250.5 483  Z " stroke-width="1" stroke="#8c8c8c" fill="none" stroke-opacity="0.352941176470588" />
  </g>
</svg>