<?xml version="1.0" encoding="utf-8"?>
<svg version="1.1" xmlns:xlink="http://www.w3.org/1999/xlink" width="12px" height="12px" viewBox="1382 471  12 12" xmlns="http://www.w3.org/2000/svg">
  <path d="M 1382.5 474  A 2.5 2.5 0 0 1 1385 471.5 L 1391 471.5  A 2.5 2.5 0 0 1 1393.5 474 L 1393.5 480  A 2.5 2.5 0 0 1 1391 482.5 L 1385 482.5  A 2.5 2.5 0 0 1 1382.5 480 L 1382.5 474  Z " fill-rule="nonzero" fill="#f0f0f0" stroke="none" />
  <path d="M 1382.5 474  A 2.5 2.5 0 0 1 1385 471.5 L 1391 471.5  A 2.5 2.5 0 0 1 1393.5 474 L 1393.5 480  A 2.5 2.5 0 0 1 1391 482.5 L 1385 482.5  A 2.5 2.5 0 0 1 1382.5 480 L 1382.5 474  Z " stroke-width="1" stroke="#797979" fill="none" />
  <path d="M 1384.57142857143 477  L 1387.14285714286 479.571428571429  " stroke-width="2.57142857142857" stroke="#797979" fill="none" />
  <path d="M 1387.14285714286 479.571428571429  L 1391.42857142857 473.571428571429  " stroke-width="2.57142857142857" stroke="#797979" fill="none" />
</svg>