<?xml version="1.0" encoding="utf-8"?>
<svg version="1.1" xmlns:xlink="http://www.w3.org/1999/xlink" width="11px" height="11px" viewBox="1783 286  11 11" xmlns="http://www.w3.org/2000/svg">
  <path d="M 1784 290  A 3 3 0 0 1 1787 287 L 1790 287  A 3 3 0 0 1 1793 290 L 1793 293  A 3 3 0 0 1 1790 296 L 1787 296  A 3 3 0 0 1 1784 293 L 1784 290  Z " fill-rule="nonzero" fill="#f0f0f0" stroke="none" />
  <path d="M 1783.5 290  A 3.5 3.5 0 0 1 1787 286.5 L 1790 286.5  A 3.5 3.5 0 0 1 1793.5 290 L 1793.5 293  A 3.5 3.5 0 0 1 1790 296.5 L 1787 296.5  A 3.5 3.5 0 0 1 1783.5 293 L 1783.5 290  Z " stroke-width="1" stroke="#8c8c8c" fill="none" stroke-opacity="0.803921568627451" />
  <path d="M 1785.35714285714 291.5  L 1787.71428571429 293.857142857143  " stroke-width="2.35714285714286" stroke="#8c8c8c" fill="none" stroke-opacity="0.803921568627451" />
  <path d="M 1787.71428571429 293.857142857143  L 1791.64285714286 288.357142857143  " stroke-width="2.35714285714286" stroke="#8c8c8c" fill="none" stroke-opacity="0.803921568627451" />
</svg>