<?xml version="1.0" encoding="utf-8"?>
<svg version="1.1" xmlns:xlink="http://www.w3.org/1999/xlink" width="728px" height="174px" xmlns="http://www.w3.org/2000/svg">
  <g transform="matrix(1 0 0 1 -898 -471 )">
    <path d="M 899 491  A 19 19 0 0 1 918 472 L 1606 472  A 19 19 0 0 1 1625 491 L 1625 625  A 19 19 0 0 1 1606 644 L 918 644  A 19 19 0 0 1 899 625 L 899 491  Z " fill-rule="nonzero" fill="#ffffff" stroke="none" />
    <path d="M 898.5 491  A 19.5 19.5 0 0 1 918 471.5 L 1606 471.5  A 19.5 19.5 0 0 1 1625.5 491 L 1625.5 625  A 19.5 19.5 0 0 1 1606 644.5 L 918 644.5  A 19.5 19.5 0 0 1 898.5 625 L 898.5 491  Z " stroke-width="1" stroke="#8c8c8c" fill="none" stroke-opacity="0.349019607843137" />
  </g>
</svg>