<?xml version="1.0" encoding="utf-8"?>
<svg version="1.1" xmlns:xlink="http://www.w3.org/1999/xlink" width="1526px" height="423px" xmlns="http://www.w3.org/2000/svg">
  <g transform="matrix(1 0 0 1 -100 -716 )">
    <path d="M 101 736  A 19 19 0 0 1 120 717 L 1606 717  A 19 19 0 0 1 1625 736 L 1625 1119  A 19 19 0 0 1 1606 1138 L 120 1138  A 19 19 0 0 1 101 1119 L 101 736  Z " fill-rule="nonzero" fill="#ffffff" stroke="none" />
    <path d="M 100.5 736  A 19.5 19.5 0 0 1 120 716.5 L 1606 716.5  A 19.5 19.5 0 0 1 1625.5 736 L 1625.5 1119  A 19.5 19.5 0 0 1 1606 1138.5 L 120 1138.5  A 19.5 19.5 0 0 1 100.5 1119 L 100.5 736  Z " stroke-width="1" stroke="#8c8c8c" fill="none" stroke-opacity="0.349019607843137" />
  </g>
</svg>