<?xml version="1.0" encoding="utf-8"?>
<svg version="1.1" xmlns:xlink="http://www.w3.org/1999/xlink" width="12px" height="12px" viewBox="620 551  12 12" xmlns="http://www.w3.org/2000/svg">
  <path d="M 620.5 554  A 2.5 2.5 0 0 1 623 551.5 L 629 551.5  A 2.5 2.5 0 0 1 631.5 554 L 631.5 560  A 2.5 2.5 0 0 1 629 562.5 L 623 562.5  A 2.5 2.5 0 0 1 620.5 560 L 620.5 554  Z " fill-rule="nonzero" fill="#ffffff" stroke="none" />
  <path d="M 620.5 554  A 2.5 2.5 0 0 1 623 551.5 L 629 551.5  A 2.5 2.5 0 0 1 631.5 554 L 631.5 560  A 2.5 2.5 0 0 1 629 562.5 L 623 562.5  A 2.5 2.5 0 0 1 620.5 560 L 620.5 554  Z " stroke-width="1" stroke="#797979" fill="none" />
</svg>