<?xml version="1.0" encoding="utf-8"?>
<svg version="1.1" xmlns:xlink="http://www.w3.org/1999/xlink" width="12px" height="12px" viewBox="620 551  12 12" xmlns="http://www.w3.org/2000/svg">
  <path d="M 620.5 554  A 2.5 2.5 0 0 1 623 551.5 L 629 551.5  A 2.5 2.5 0 0 1 631.5 554 L 631.5 560  A 2.5 2.5 0 0 1 629 562.5 L 623 562.5  A 2.5 2.5 0 0 1 620.5 560 L 620.5 554  Z " fill-rule="nonzero" fill="#f0f0f0" stroke="none" />
  <path d="M 620.5 554  A 2.5 2.5 0 0 1 623 551.5 L 629 551.5  A 2.5 2.5 0 0 1 631.5 554 L 631.5 560  A 2.5 2.5 0 0 1 629 562.5 L 623 562.5  A 2.5 2.5 0 0 1 620.5 560 L 620.5 554  Z " stroke-width="1" stroke="#797979" fill="none" />
  <path d="M 622.571428571429 557  L 625.142857142857 559.571428571429  " stroke-width="2.57142857142857" stroke="#797979" fill="none" />
  <path d="M 625.142857142857 559.571428571429  L 629.428571428571 553.571428571429  " stroke-width="2.57142857142857" stroke="#797979" fill="none" />
</svg>