<?xml version="1.0" encoding="utf-8"?>
<svg version="1.1" xmlns:xlink="http://www.w3.org/1999/xlink" width="12px" height="12px" viewBox="767 551  12 12" xmlns="http://www.w3.org/2000/svg">
  <path d="M 767.5 554  A 2.5 2.5 0 0 1 770 551.5 L 776 551.5  A 2.5 2.5 0 0 1 778.5 554 L 778.5 560  A 2.5 2.5 0 0 1 776 562.5 L 770 562.5  A 2.5 2.5 0 0 1 767.5 560 L 767.5 554  Z " fill-rule="nonzero" fill="#f0f0f0" stroke="none" />
  <path d="M 767.5 554  A 2.5 2.5 0 0 1 770 551.5 L 776 551.5  A 2.5 2.5 0 0 1 778.5 554 L 778.5 560  A 2.5 2.5 0 0 1 776 562.5 L 770 562.5  A 2.5 2.5 0 0 1 767.5 560 L 767.5 554  Z " stroke-width="1" stroke="#797979" fill="none" />
</svg>