<?xml version="1.0" encoding="utf-8"?>
<svg version="1.1" xmlns:xlink="http://www.w3.org/1999/xlink" width="12px" height="12px" viewBox="468 551  12 12" xmlns="http://www.w3.org/2000/svg">
  <path d="M 468.5 554  A 2.5 2.5 0 0 1 471 551.5 L 477 551.5  A 2.5 2.5 0 0 1 479.5 554 L 479.5 560  A 2.5 2.5 0 0 1 477 562.5 L 471 562.5  A 2.5 2.5 0 0 1 468.5 560 L 468.5 554  Z " fill-rule="nonzero" fill="#f0f0f0" stroke="none" />
  <path d="M 468.5 554  A 2.5 2.5 0 0 1 471 551.5 L 477 551.5  A 2.5 2.5 0 0 1 479.5 554 L 479.5 560  A 2.5 2.5 0 0 1 477 562.5 L 471 562.5  A 2.5 2.5 0 0 1 468.5 560 L 468.5 554  Z " stroke-width="1" stroke="#797979" fill="none" />
</svg>