<?xml version="1.0" encoding="utf-8"?>
<svg version="1.1" xmlns:xlink="http://www.w3.org/1999/xlink" width="12px" height="12px" viewBox="249 551  12 12" xmlns="http://www.w3.org/2000/svg">
  <path d="M 249.5 554  A 2.5 2.5 0 0 1 252 551.5 L 258 551.5  A 2.5 2.5 0 0 1 260.5 554 L 260.5 560  A 2.5 2.5 0 0 1 258 562.5 L 252 562.5  A 2.5 2.5 0 0 1 249.5 560 L 249.5 554  Z " fill-rule="nonzero" fill="#f0f0f0" stroke="none" />
  <path d="M 249.5 554  A 2.5 2.5 0 0 1 252 551.5 L 258 551.5  A 2.5 2.5 0 0 1 260.5 554 L 260.5 560  A 2.5 2.5 0 0 1 258 562.5 L 252 562.5  A 2.5 2.5 0 0 1 249.5 560 L 249.5 554  Z " stroke-width="1" stroke="#797979" fill="none" />
  <path d="M 251.571428571429 557  L 254.142857142857 559.571428571429  " stroke-width="2.57142857142857" stroke="#797979" fill="none" />
  <path d="M 254.142857142857 559.571428571429  L 258.428571428571 553.571428571429  " stroke-width="2.57142857142857" stroke="#797979" fill="none" />
</svg>