<?xml version="1.0" encoding="utf-8"?>
<svg version="1.1" xmlns:xlink="http://www.w3.org/1999/xlink" width="12px" height="12px" viewBox="1295 1439  12 12" xmlns="http://www.w3.org/2000/svg">
  <path d="M 1295.5 1442  A 2.5 2.5 0 0 1 1298 1439.5 L 1304 1439.5  A 2.5 2.5 0 0 1 1306.5 1442 L 1306.5 1448  A 2.5 2.5 0 0 1 1304 1450.5 L 1298 1450.5  A 2.5 2.5 0 0 1 1295.5 1448 L 1295.5 1442  Z " fill-rule="nonzero" fill="#ffffff" stroke="none" />
  <path d="M 1295.5 1442  A 2.5 2.5 0 0 1 1298 1439.5 L 1304 1439.5  A 2.5 2.5 0 0 1 1306.5 1442 L 1306.5 1448  A 2.5 2.5 0 0 1 1304 1450.5 L 1298 1450.5  A 2.5 2.5 0 0 1 1295.5 1448 L 1295.5 1442  Z " stroke-width="1" stroke="#f60068" fill="none" />
  <path d="M 1297.57142857143 1445  L 1300.14285714286 1447.57142857143  " stroke-width="2.57142857142857" stroke="#f60068" fill="none" />
  <path d="M 1300.14285714286 1447.57142857143  L 1304.42857142857 1441.57142857143  " stroke-width="2.57142857142857" stroke="#f60068" fill="none" />
</svg>