<?xml version="1.0" encoding="utf-8"?>
<svg version="1.1" xmlns:xlink="http://www.w3.org/1999/xlink" width="1526px" height="160px" xmlns="http://www.w3.org/2000/svg">
  <g transform="matrix(1 0 0 1 -100 -228 )">
    <path d="M 101 248  A 19 19 0 0 1 120 229 L 1606 229  A 19 19 0 0 1 1625 248 L 1625 368  A 19 19 0 0 1 1606 387 L 120 387  A 19 19 0 0 1 101 368 L 101 248  Z " fill-rule="nonzero" fill="#ffffff" stroke="none" />
    <path d="M 100.5 248  A 19.5 19.5 0 0 1 120 228.5 L 1606 228.5  A 19.5 19.5 0 0 1 1625.5 248 L 1625.5 368  A 19.5 19.5 0 0 1 1606 387.5 L 120 387.5  A 19.5 19.5 0 0 1 100.5 368 L 100.5 248  Z " stroke-width="1" stroke="#8c8c8c" fill="none" stroke-opacity="0.349019607843137" />
  </g>
</svg>