<?xml version="1.0" encoding="utf-8"?>
<svg version="1.1" xmlns:xlink="http://www.w3.org/1999/xlink" width="736px" height="174px" xmlns="http://www.w3.org/2000/svg">
  <g transform="matrix(1 0 0 1 -890 -461 )">
    <path d="M 891 481  A 19 19 0 0 1 910 462 L 1606 462  A 19 19 0 0 1 1625 481 L 1625 615  A 19 19 0 0 1 1606 634 L 910 634  A 19 19 0 0 1 891 615 L 891 481  Z " fill-rule="nonzero" fill="#ffffff" stroke="none" />
    <path d="M 890.5 481  A 19.5 19.5 0 0 1 910 461.5 L 1606 461.5  A 19.5 19.5 0 0 1 1625.5 481 L 1625.5 615  A 19.5 19.5 0 0 1 1606 634.5 L 910 634.5  A 19.5 19.5 0 0 1 890.5 615 L 890.5 481  Z " stroke-width="1" stroke="#8c8c8c" fill="none" stroke-opacity="0.349019607843137" />
  </g>
</svg>