<?xml version="1.0" encoding="utf-8"?>
<svg version="1.1" xmlns:xlink="http://www.w3.org/1999/xlink" width="1526px" height="400px" xmlns="http://www.w3.org/2000/svg">
  <g transform="matrix(1 0 0 1 -100 -708 )">
    <path d="M 101 728  A 19 19 0 0 1 120 709 L 1606 709  A 19 19 0 0 1 1625 728 L 1625 1088  A 19 19 0 0 1 1606 1107 L 120 1107  A 19 19 0 0 1 101 1088 L 101 728  Z " fill-rule="nonzero" fill="#ffffff" stroke="none" />
    <path d="M 100.5 728  A 19.5 19.5 0 0 1 120 708.5 L 1606 708.5  A 19.5 19.5 0 0 1 1625.5 728 L 1625.5 1088  A 19.5 19.5 0 0 1 1606 1107.5 L 120 1107.5  A 19.5 19.5 0 0 1 100.5 1088 L 100.5 728  Z " stroke-width="1" stroke="#8c8c8c" fill="none" stroke-opacity="0.349019607843137" />
  </g>
</svg>