<?xml version="1.0" encoding="utf-8"?>
<svg version="1.1" xmlns:xlink="http://www.w3.org/1999/xlink" width="1526px" height="174px" xmlns="http://www.w3.org/2000/svg">
  <g transform="matrix(1 0 0 1 -100 -1466 )">
    <path d="M 101 1486  A 19 19 0 0 1 120 1467 L 1606 1467  A 19 19 0 0 1 1625 1486 L 1625 1620  A 19 19 0 0 1 1606 1639 L 120 1639  A 19 19 0 0 1 101 1620 L 101 1486  Z " fill-rule="nonzero" fill="#ffffff" stroke="none" />
    <path d="M 100.5 1486  A 19.5 19.5 0 0 1 120 1466.5 L 1606 1466.5  A 19.5 19.5 0 0 1 1625.5 1486 L 1625.5 1620  A 19.5 19.5 0 0 1 1606 1639.5 L 120 1639.5  A 19.5 19.5 0 0 1 100.5 1620 L 100.5 1486  Z " stroke-width="1" stroke="#8c8c8c" fill="none" stroke-opacity="0.349019607843137" />
  </g>
</svg>