<?xml version="1.0" encoding="utf-8"?>
<svg version="1.1" xmlns:xlink="http://www.w3.org/1999/xlink" width="12px" height="12px" viewBox="249 550  12 12" xmlns="http://www.w3.org/2000/svg">
  <path d="M 249.5 553  A 2.5 2.5 0 0 1 252 550.5 L 258 550.5  A 2.5 2.5 0 0 1 260.5 553 L 260.5 559  A 2.5 2.5 0 0 1 258 561.5 L 252 561.5  A 2.5 2.5 0 0 1 249.5 559 L 249.5 553  Z " fill-rule="nonzero" fill="#f0f0f0" stroke="none" />
  <path d="M 249.5 553  A 2.5 2.5 0 0 1 252 550.5 L 258 550.5  A 2.5 2.5 0 0 1 260.5 553 L 260.5 559  A 2.5 2.5 0 0 1 258 561.5 L 252 561.5  A 2.5 2.5 0 0 1 249.5 559 L 249.5 553  Z " stroke-width="1" stroke="#797979" fill="none" />
</svg>