<?xml version="1.0" encoding="utf-8"?>
<svg version="1.1" xmlns:xlink="http://www.w3.org/1999/xlink" width="10px" height="12px" xmlns="http://www.w3.org/2000/svg">
  <g transform="matrix(1 0 0 1 -21 -7 )">
    <path d="M 9.67013888888889 5.47265625  C 9.8900462962963 5.62109375  10 5.796875  10 6  C 10 6.203125  9.8900462962963 6.37890625  9.67013888888889 6.52734375  L 1.89236111111111 11.77734375  C 1.6724537037037 11.92578125  1.41203703703704 12  1.11111111111111 12  C 0.810185185185185 12  0.549768518518518 11.92578125  0.329861111111111 11.77734375  C 0.109953703703704 11.62890625  0 11.453125  0 11.25  L 0 0.75  C 0 0.546874999999998  0.109953703703704 0.371093749999998  0.329861111111111 0.22265625  C 0.549768518518518 0.0742187499999991  0.810185185185185 0  1.11111111111111 0  C 1.41203703703704 0  1.6724537037037 0.0742187499999991  1.89236111111111 0.22265625  L 9.67013888888889 5.47265625  Z " fill-rule="nonzero" fill="#ffffff" stroke="none" transform="matrix(1 0 0 1 21 7 )" />
  </g>
</svg>