<?xml version="1.0" encoding="utf-8"?>
<svg version="1.1" xmlns:xlink="http://www.w3.org/1999/xlink" width="1526px" height="198px" xmlns="http://www.w3.org/2000/svg">
  <g transform="matrix(1 0 0 1 -100 -1183 )">
    <path d="M 101 1203  A 19 19 0 0 1 120 1184 L 1606 1184  A 19 19 0 0 1 1625 1203 L 1625 1361  A 19 19 0 0 1 1606 1380 L 120 1380  A 19 19 0 0 1 101 1361 L 101 1203  Z " fill-rule="nonzero" fill="#ffffff" stroke="none" />
    <path d="M 100.5 1203  A 19.5 19.5 0 0 1 120 1183.5 L 1606 1183.5  A 19.5 19.5 0 0 1 1625.5 1203 L 1625.5 1361  A 19.5 19.5 0 0 1 1606 1380.5 L 120 1380.5  A 19.5 19.5 0 0 1 100.5 1361 L 100.5 1203  Z " stroke-width="1" stroke="#8c8c8c" fill="none" stroke-opacity="0.349019607843137" />
  </g>
</svg>