<?xml version="1.0" encoding="utf-8"?>
<svg version="1.1" xmlns:xlink="http://www.w3.org/1999/xlink" width="12px" height="12px" viewBox="620 550  12 12" xmlns="http://www.w3.org/2000/svg">
  <path d="M 620.5 553  A 2.5 2.5 0 0 1 623 550.5 L 629 550.5  A 2.5 2.5 0 0 1 631.5 553 L 631.5 559  A 2.5 2.5 0 0 1 629 561.5 L 623 561.5  A 2.5 2.5 0 0 1 620.5 559 L 620.5 553  Z " fill-rule="nonzero" fill="#ffffff" stroke="none" />
  <path d="M 620.5 553  A 2.5 2.5 0 0 1 623 550.5 L 629 550.5  A 2.5 2.5 0 0 1 631.5 553 L 631.5 559  A 2.5 2.5 0 0 1 629 561.5 L 623 561.5  A 2.5 2.5 0 0 1 620.5 559 L 620.5 553  Z " stroke-width="1" stroke="#797979" fill="none" />
</svg>