<?xml version="1.0" encoding="utf-8"?>
<svg version="1.1" xmlns:xlink="http://www.w3.org/1999/xlink" width="12px" height="12px" viewBox="1090 382  12 12" xmlns="http://www.w3.org/2000/svg">
  <path d="M 1090.5 385  A 2.5 2.5 0 0 1 1093 382.5 L 1099 382.5  A 2.5 2.5 0 0 1 1101.5 385 L 1101.5 391  A 2.5 2.5 0 0 1 1099 393.5 L 1093 393.5  A 2.5 2.5 0 0 1 1090.5 391 L 1090.5 385  Z " fill-rule="nonzero" fill="#ffffff" stroke="none" />
  <path d="M 1090.5 385  A 2.5 2.5 0 0 1 1093 382.5 L 1099 382.5  A 2.5 2.5 0 0 1 1101.5 385 L 1101.5 391  A 2.5 2.5 0 0 1 1099 393.5 L 1093 393.5  A 2.5 2.5 0 0 1 1090.5 391 L 1090.5 385  Z " stroke-width="1" stroke="#ff0361" fill="none" />
</svg>