<?xml version="1.0" encoding="utf-8"?>
<svg version="1.1" xmlns:xlink="http://www.w3.org/1999/xlink" width="12px" height="12px" viewBox="1001 382  12 12" xmlns="http://www.w3.org/2000/svg">
  <path d="M 1001.5 385  A 2.5 2.5 0 0 1 1004 382.5 L 1010 382.5  A 2.5 2.5 0 0 1 1012.5 385 L 1012.5 391  A 2.5 2.5 0 0 1 1010 393.5 L 1004 393.5  A 2.5 2.5 0 0 1 1001.5 391 L 1001.5 385  Z " fill-rule="nonzero" fill="#f0f0f0" stroke="none" />
  <path d="M 1001.5 385  A 2.5 2.5 0 0 1 1004 382.5 L 1010 382.5  A 2.5 2.5 0 0 1 1012.5 385 L 1012.5 391  A 2.5 2.5 0 0 1 1010 393.5 L 1004 393.5  A 2.5 2.5 0 0 1 1001.5 391 L 1001.5 385  Z " stroke-width="1" stroke="#797979" fill="none" />
  <path d="M 1003.57142857143 388  L 1006.14285714286 390.571428571429  " stroke-width="2.57142857142857" stroke="#797979" fill="none" />
  <path d="M 1006.14285714286 390.571428571429  L 1010.42857142857 384.571428571429  " stroke-width="2.57142857142857" stroke="#797979" fill="none" />
</svg>