<?xml version="1.0" encoding="utf-8"?>
<svg version="1.1" xmlns:xlink="http://www.w3.org/1999/xlink" width="12px" height="12px" viewBox="908 382  12 12" xmlns="http://www.w3.org/2000/svg">
  <path d="M 908.5 385  A 2.5 2.5 0 0 1 911 382.5 L 917 382.5  A 2.5 2.5 0 0 1 919.5 385 L 919.5 391  A 2.5 2.5 0 0 1 917 393.5 L 911 393.5  A 2.5 2.5 0 0 1 908.5 391 L 908.5 385  Z " fill-rule="nonzero" fill="#ffffff" stroke="none" />
  <path d="M 908.5 385  A 2.5 2.5 0 0 1 911 382.5 L 917 382.5  A 2.5 2.5 0 0 1 919.5 385 L 919.5 391  A 2.5 2.5 0 0 1 917 393.5 L 911 393.5  A 2.5 2.5 0 0 1 908.5 391 L 908.5 385  Z " stroke-width="1" stroke="#f60068" fill="none" />
  <path d="M 910.571428571429 388  L 913.142857142857 390.571428571429  " stroke-width="2.57142857142857" stroke="#f60068" fill="none" />
  <path d="M 913.142857142857 390.571428571429  L 917.428571428571 384.571428571429  " stroke-width="2.57142857142857" stroke="#f60068" fill="none" />
</svg>