<?xml version="1.0" encoding="utf-8"?>
<svg version="1.1" xmlns:xlink="http://www.w3.org/1999/xlink" width="12px" height="12px" viewBox="198 387  12 12" xmlns="http://www.w3.org/2000/svg">
  <path d="M 198.5 390  A 2.5 2.5 0 0 1 201 387.5 L 207 387.5  A 2.5 2.5 0 0 1 209.5 390 L 209.5 396  A 2.5 2.5 0 0 1 207 398.5 L 201 398.5  A 2.5 2.5 0 0 1 198.5 396 L 198.5 390  Z " fill-rule="nonzero" fill="#ffffff" stroke="none" />
  <path d="M 198.5 390  A 2.5 2.5 0 0 1 201 387.5 L 207 387.5  A 2.5 2.5 0 0 1 209.5 390 L 209.5 396  A 2.5 2.5 0 0 1 207 398.5 L 201 398.5  A 2.5 2.5 0 0 1 198.5 396 L 198.5 390  Z " stroke-width="1" stroke="#f60068" fill="none" />
  <path d="M 200.571428571429 393  L 203.142857142857 395.571428571429  " stroke-width="2.57142857142857" stroke="#f60068" fill="none" />
  <path d="M 203.142857142857 395.571428571429  L 207.428571428571 389.571428571429  " stroke-width="2.57142857142857" stroke="#f60068" fill="none" />
</svg>