<?xml version="1.0" encoding="utf-8"?>
<svg version="1.1" xmlns:xlink="http://www.w3.org/1999/xlink" width="11px" height="11px" viewBox="168 287  11 11" xmlns="http://www.w3.org/2000/svg">
  <path d="M 169 291  A 3 3 0 0 1 172 288 L 175 288  A 3 3 0 0 1 178 291 L 178 294  A 3 3 0 0 1 175 297 L 172 297  A 3 3 0 0 1 169 294 L 169 291  Z " fill-rule="nonzero" fill="#f0f0f0" stroke="none" />
  <path d="M 168.5 291  A 3.5 3.5 0 0 1 172 287.5 L 175 287.5  A 3.5 3.5 0 0 1 178.5 291 L 178.5 294  A 3.5 3.5 0 0 1 175 297.5 L 172 297.5  A 3.5 3.5 0 0 1 168.5 294 L 168.5 291  Z " stroke-width="1" stroke="#32bd2f" fill="none" stroke-opacity="0.949019607843137" />
</svg>