<?xml version="1.0" encoding="utf-8"?>
<svg version="1.1" xmlns:xlink="http://www.w3.org/1999/xlink" width="587px" height="69px" viewBox="1108 450  587 69" xmlns="http://www.w3.org/2000/svg">
  <path d="M 1109 470  A 19 19 0 0 1 1128 451 L 1675 451  A 19 19 0 0 1 1694 470 L 1694 499  A 19 19 0 0 1 1675 518 L 1128 518  A 19 19 0 0 1 1109 499 L 1109 470  Z " fill-rule="nonzero" fill="#f0f0f0" stroke="none" />
  <path d="M 1108.5 470  A 19.5 19.5 0 0 1 1128 450.5 L 1675 450.5  A 19.5 19.5 0 0 1 1694.5 470 L 1694.5 499  A 19.5 19.5 0 0 1 1675 518.5 L 1128 518.5  A 19.5 19.5 0 0 1 1108.5 499 L 1108.5 470  Z " stroke-width="1" stroke="#8c8c8c" fill="none" stroke-opacity="0.352941176470588" />
</svg>