<?xml version="1.0" encoding="utf-8"?>
<svg version="1.1" xmlns:xlink="http://www.w3.org/1999/xlink" width="323px" height="35px" viewBox="830 216  323 35" xmlns="http://www.w3.org/2000/svg">
  <path d="M 831 233.5  A 16.5 16.5 0 0 1 847.5 217 L 1135.5 217  A 16.5 16.5 0 0 1 1152 233.5 A 16.5 16.5 0 0 1 1135.5 250 L 847.5 250  A 16.5 16.5 0 0 1 831 233.5 Z " fill-rule="nonzero" fill="#ffffff" stroke="none" fill-opacity="0.164705882352941" />
  <path d="M 830.5 233.5  A 17 17 0 0 1 847.5 216.5 L 1135.5 216.5  A 17 17 0 0 1 1152.5 233.5 A 17 17 0 0 1 1135.5 250.5 L 847.5 250.5  A 17 17 0 0 1 830.5 233.5 Z " stroke-width="1" stroke="#8c8c8c" fill="none" stroke-opacity="0.352941176470588" />
</svg>