<?xml version="1.0" encoding="utf-8"?>
<svg version="1.1" xmlns:xlink="http://www.w3.org/1999/xlink" width="339px" height="126px" viewBox="814 333  339 126" xmlns="http://www.w3.org/2000/svg">
  <path d="M 815 353  A 19 19 0 0 1 834 334 L 1133 334  A 19 19 0 0 1 1152 353 L 1152 439  A 19 19 0 0 1 1133 458 L 834 458  A 19 19 0 0 1 815 439 L 815 353  Z " fill-rule="nonzero" fill="#ffffff" stroke="none" />
  <path d="M 814.5 353  A 19.5 19.5 0 0 1 834 333.5 L 1133 333.5  A 19.5 19.5 0 0 1 1152.5 353 L 1152.5 439  A 19.5 19.5 0 0 1 1133 458.5 L 834 458.5  A 19.5 19.5 0 0 1 814.5 439 L 814.5 353  Z " stroke-width="1" stroke="#8c8c8c" fill="none" stroke-opacity="0.352941176470588" />
</svg>