<?xml version="1.0" encoding="utf-8"?>
<svg version="1.1" xmlns:xlink="http://www.w3.org/1999/xlink" width="12px" height="12px" viewBox="1655 513  12 12" xmlns="http://www.w3.org/2000/svg">
  <path d="M 1655.5 516  A 2.5 2.5 0 0 1 1658 513.5 L 1664 513.5  A 2.5 2.5 0 0 1 1666.5 516 L 1666.5 522  A 2.5 2.5 0 0 1 1664 524.5 L 1658 524.5  A 2.5 2.5 0 0 1 1655.5 522 L 1655.5 516  Z " fill-rule="nonzero" fill="#ffffff" stroke="none" />
  <path d="M 1655.5 516  A 2.5 2.5 0 0 1 1658 513.5 L 1664 513.5  A 2.5 2.5 0 0 1 1666.5 516 L 1666.5 522  A 2.5 2.5 0 0 1 1664 524.5 L 1658 524.5  A 2.5 2.5 0 0 1 1655.5 522 L 1655.5 516  Z " stroke-width="1" stroke="#797979" fill="none" />
</svg>