<?xml version="1.0" encoding="utf-8"?>
<svg version="1.1" xmlns:xlink="http://www.w3.org/1999/xlink" width="11px" height="11px" viewBox="1764 288  11 11" xmlns="http://www.w3.org/2000/svg">
  <path d="M 1764.5 292  A 3.5 3.5 0 0 1 1768 288.5 L 1771 288.5  A 3.5 3.5 0 0 1 1774.5 292 L 1774.5 295  A 3.5 3.5 0 0 1 1771 298.5 L 1768 298.5  A 3.5 3.5 0 0 1 1764.5 295 L 1764.5 292  Z " fill-rule="nonzero" fill="#ffffff" stroke="none" />
  <path d="M 1764.5 292  A 3.5 3.5 0 0 1 1768 288.5 L 1771 288.5  A 3.5 3.5 0 0 1 1774.5 292 L 1774.5 295  A 3.5 3.5 0 0 1 1771 298.5 L 1768 298.5  A 3.5 3.5 0 0 1 1764.5 295 L 1764.5 292  Z " stroke-width="1" stroke="#8c8c8c" fill="none" />
</svg>