<?xml version="1.0" encoding="utf-8"?>
<svg version="1.1" xmlns:xlink="http://www.w3.org/1999/xlink" width="11px" height="11px" viewBox="1764 319  11 11" xmlns="http://www.w3.org/2000/svg">
  <path d="M 1764.5 323  A 3.5 3.5 0 0 1 1768 319.5 L 1771 319.5  A 3.5 3.5 0 0 1 1774.5 323 L 1774.5 326  A 3.5 3.5 0 0 1 1771 329.5 L 1768 329.5  A 3.5 3.5 0 0 1 1764.5 326 L 1764.5 323  Z " fill-rule="nonzero" fill="#ffffff" stroke="none" />
  <path d="M 1764.5 323  A 3.5 3.5 0 0 1 1768 319.5 L 1771 319.5  A 3.5 3.5 0 0 1 1774.5 323 L 1774.5 326  A 3.5 3.5 0 0 1 1771 329.5 L 1768 329.5  A 3.5 3.5 0 0 1 1764.5 326 L 1764.5 323  Z " stroke-width="1" stroke="#8c8c8c" fill="none" />
  <path d="M 1766.35714285714 324.5  L 1768.71428571429 326.857142857143  " stroke-width="2.35714285714286" stroke="#8c8c8c" fill="none" />
  <path d="M 1768.71428571429 326.857142857143  L 1772.64285714286 321.357142857143  " stroke-width="2.35714285714286" stroke="#8c8c8c" fill="none" />
</svg>