<?xml version="1.0" encoding="utf-8"?>
<svg version="1.1" xmlns:xlink="http://www.w3.org/1999/xlink" width="708px" height="200px" xmlns="http://www.w3.org/2000/svg">
  <g transform="matrix(1 0 0 1 -987 -879 )">
    <path d="M 988 899  A 19 19 0 0 1 1007 880 L 1675 880  A 19 19 0 0 1 1694 899 L 1694 1059  A 19 19 0 0 1 1675 1078 L 1007 1078  A 19 19 0 0 1 988 1059 L 988 899  Z " fill-rule="nonzero" fill="#ffffff" stroke="none" />
    <path d="M 987.5 899  A 19.5 19.5 0 0 1 1007 879.5 L 1675 879.5  A 19.5 19.5 0 0 1 1694.5 899 L 1694.5 1059  A 19.5 19.5 0 0 1 1675 1078.5 L 1007 1078.5  A 19.5 19.5 0 0 1 987.5 1059 L 987.5 899  Z " stroke-width="1" stroke="#8c8c8c" fill="none" stroke-opacity="0.349019607843137" />
  </g>
</svg>