<?xml version="1.0" encoding="utf-8"?>
<svg version="1.1" xmlns:xlink="http://www.w3.org/1999/xlink" width="12px" height="12px" viewBox="1328 966  12 12" xmlns="http://www.w3.org/2000/svg">
  <path d="M 1328.5 969  A 2.5 2.5 0 0 1 1331 966.5 L 1337 966.5  A 2.5 2.5 0 0 1 1339.5 969 L 1339.5 975  A 2.5 2.5 0 0 1 1337 977.5 L 1331 977.5  A 2.5 2.5 0 0 1 1328.5 975 L 1328.5 969  Z " fill-rule="nonzero" fill="#ffffff" stroke="none" />
  <path d="M 1328.5 969  A 2.5 2.5 0 0 1 1331 966.5 L 1337 966.5  A 2.5 2.5 0 0 1 1339.5 969 L 1339.5 975  A 2.5 2.5 0 0 1 1337 977.5 L 1331 977.5  A 2.5 2.5 0 0 1 1328.5 975 L 1328.5 969  Z " stroke-width="1" stroke="#f60068" fill="none" />
  <path d="M 1330.57142857143 972  L 1333.14285714286 974.571428571429  " stroke-width="2.57142857142857" stroke="#f60068" fill="none" />
  <path d="M 1333.14285714286 974.571428571429  L 1337.42857142857 968.571428571429  " stroke-width="2.57142857142857" stroke="#f60068" fill="none" />
</svg>