<?xml version="1.0" encoding="utf-8"?>
<svg version="1.1" xmlns:xlink="http://www.w3.org/1999/xlink" width="12px" height="12px" viewBox="1612 966  12 12" xmlns="http://www.w3.org/2000/svg">
  <path d="M 1612.5 969  A 2.5 2.5 0 0 1 1615 966.5 L 1621 966.5  A 2.5 2.5 0 0 1 1623.5 969 L 1623.5 975  A 2.5 2.5 0 0 1 1621 977.5 L 1615 977.5  A 2.5 2.5 0 0 1 1612.5 975 L 1612.5 969  Z " fill-rule="nonzero" fill="#ffffff" stroke="none" />
  <path d="M 1612.5 969  A 2.5 2.5 0 0 1 1615 966.5 L 1621 966.5  A 2.5 2.5 0 0 1 1623.5 969 L 1623.5 975  A 2.5 2.5 0 0 1 1621 977.5 L 1615 977.5  A 2.5 2.5 0 0 1 1612.5 975 L 1612.5 969  Z " stroke-width="1" stroke="#797979" fill="none" />
</svg>