<?xml version="1.0" encoding="utf-8"?>
<svg version="1.1" xmlns:xlink="http://www.w3.org/1999/xlink" width="778px" height="200px" xmlns="http://www.w3.org/2000/svg">
  <g transform="matrix(1 0 0 1 -158 -879 )">
    <path d="M 159 899  A 19 19 0 0 1 178 880 L 916 880  A 19 19 0 0 1 935 899 L 935 1059  A 19 19 0 0 1 916 1078 L 178 1078  A 19 19 0 0 1 159 1059 L 159 899  Z " fill-rule="nonzero" fill="#ffffff" stroke="none" />
    <path d="M 158.5 899  A 19.5 19.5 0 0 1 178 879.5 L 916 879.5  A 19.5 19.5 0 0 1 935.5 899 L 935.5 1059  A 19.5 19.5 0 0 1 916 1078.5 L 178 1078.5  A 19.5 19.5 0 0 1 158.5 1059 L 158.5 899  Z " stroke-width="1" stroke="#8c8c8c" fill="none" stroke-opacity="0.349019607843137" />
  </g>
</svg>