<?xml version="1.0" encoding="utf-8"?>
<svg version="1.1" xmlns:xlink="http://www.w3.org/1999/xlink" width="292px" height="70px" viewBox="851 401  292 70" xmlns="http://www.w3.org/2000/svg">
  <path d="M 852 421  A 19 19 0 0 1 871 402 L 1123 402  A 19 19 0 0 1 1142 421 L 1142 451  A 19 19 0 0 1 1123 470 L 871 470  A 19 19 0 0 1 852 451 L 852 421  Z " fill-rule="nonzero" fill="#ffffff" stroke="none" />
  <path d="M 851.5 421  A 19.5 19.5 0 0 1 871 401.5 L 1123 401.5  A 19.5 19.5 0 0 1 1142.5 421 L 1142.5 451  A 19.5 19.5 0 0 1 1123 470.5 L 871 470.5  A 19.5 19.5 0 0 1 851.5 451 L 851.5 421  Z " stroke-width="1" stroke="#8c8c8c" fill="none" stroke-opacity="0.352941176470588" />
</svg>