<?xml version="1.0" encoding="utf-8"?>
<svg version="1.1" xmlns:xlink="http://www.w3.org/1999/xlink" width="587px" height="237px" xmlns="http://www.w3.org/2000/svg">
  <g transform="matrix(1 0 0 1 -1108 -132 )">
    <path d="M 1109 152  A 19 19 0 0 1 1128 133 L 1675 133  A 19 19 0 0 1 1694 152 L 1694 349  A 19 19 0 0 1 1675 368 L 1128 368  A 19 19 0 0 1 1109 349 L 1109 152  Z " fill-rule="nonzero" fill="#ffffff" stroke="none" />
    <path d="M 1108.5 152  A 19.5 19.5 0 0 1 1128 132.5 L 1675 132.5  A 19.5 19.5 0 0 1 1694.5 152 L 1694.5 349  A 19.5 19.5 0 0 1 1675 368.5 L 1128 368.5  A 19.5 19.5 0 0 1 1108.5 349 L 1108.5 152  Z " stroke-width="1" stroke="#8c8c8c" fill="none" stroke-opacity="0.352941176470588" />
  </g>
</svg>