<?xml version="1.0" encoding="utf-8"?>
<svg version="1.1" xmlns:xlink="http://www.w3.org/1999/xlink" width="238px" height="70px" viewBox="418 380  238 70" xmlns="http://www.w3.org/2000/svg">
  <path d="M 419 400  A 19 19 0 0 1 438 381 L 636 381  A 19 19 0 0 1 655 400 L 655 430  A 19 19 0 0 1 636 449 L 438 449  A 19 19 0 0 1 419 430 L 419 400  Z " fill-rule="nonzero" fill="#f0f0f0" stroke="none" />
  <path d="M 418.5 400  A 19.5 19.5 0 0 1 438 380.5 L 636 380.5  A 19.5 19.5 0 0 1 655.5 400 L 655.5 430  A 19.5 19.5 0 0 1 636 449.5 L 438 449.5  A 19.5 19.5 0 0 1 418.5 430 L 418.5 400  Z " stroke-width="1" stroke="#8c8c8c" fill="none" stroke-opacity="0.352941176470588" />
</svg>