<?xml version="1.0" encoding="utf-8"?>
<svg version="1.1" xmlns:xlink="http://www.w3.org/1999/xlink" width="264px" height="117px" xmlns="http://www.w3.org/2000/svg">
  <g transform="matrix(1 0 0 1 -823 -379 )">
    <path d="M 824 399  A 19 19 0 0 1 843 380 L 1067 380  A 19 19 0 0 1 1086 399 L 1086 476  A 19 19 0 0 1 1067 495 L 843 495  A 19 19 0 0 1 824 476 L 824 399  Z " fill-rule="nonzero" fill="#ffffff" stroke="none" />
    <path d="M 823.5 399  A 19.5 19.5 0 0 1 843 379.5 L 1067 379.5  A 19.5 19.5 0 0 1 1086.5 399 L 1086.5 476  A 19.5 19.5 0 0 1 1067 495.5 L 843 495.5  A 19.5 19.5 0 0 1 823.5 476 L 823.5 399  Z " stroke-width="1" stroke="#8c8c8c" fill="none" stroke-opacity="0.352941176470588" />
  </g>
</svg>