<?xml version="1.0" encoding="utf-8"?>
<svg version="1.1" xmlns:xlink="http://www.w3.org/1999/xlink" width="224px" height="70px" viewBox="433 380  224 70" xmlns="http://www.w3.org/2000/svg">
  <path d="M 434 400  A 19 19 0 0 1 453 381 L 637 381  A 19 19 0 0 1 656 400 L 656 430  A 19 19 0 0 1 637 449 L 453 449  A 19 19 0 0 1 434 430 L 434 400  Z " fill-rule="nonzero" fill="#ffffff" stroke="none" />
  <path d="M 433.5 400  A 19.5 19.5 0 0 1 453 380.5 L 637 380.5  A 19.5 19.5 0 0 1 656.5 400 L 656.5 430  A 19.5 19.5 0 0 1 637 449.5 L 453 449.5  A 19.5 19.5 0 0 1 433.5 430 L 433.5 400  Z " stroke-width="1" stroke="#8c8c8c" fill="none" stroke-opacity="0.352941176470588" />
</svg>