<?xml version="1.0" encoding="utf-8"?>
<svg version="1.1" xmlns:xlink="http://www.w3.org/1999/xlink" width="512px" height="79px" xmlns="http://www.w3.org/2000/svg">
  <g transform="matrix(1 0 0 1 -552 -488 )">
    <path d="M 553 508  A 19 19 0 0 1 572 489 L 1044 489  A 19 19 0 0 1 1063 508 L 1063 547  A 19 19 0 0 1 1044 566 L 572 566  A 19 19 0 0 1 553 547 L 553 508  Z " fill-rule="nonzero" fill="#ffffff" stroke="none" />
    <path d="M 552.5 508  A 19.5 19.5 0 0 1 572 488.5 L 1044 488.5  A 19.5 19.5 0 0 1 1063.5 508 L 1063.5 547  A 19.5 19.5 0 0 1 1044 566.5 L 572 566.5  A 19.5 19.5 0 0 1 552.5 547 L 552.5 508  Z " stroke-width="1" stroke="#8c8c8c" fill="none" stroke-opacity="0.352941176470588" />
  </g>
</svg>