<?xml version="1.0" encoding="utf-8"?>
<svg version="1.1" xmlns:xlink="http://www.w3.org/1999/xlink" width="517px" height="79px" viewBox="1179 488  517 79" xmlns="http://www.w3.org/2000/svg">
  <path d="M 1180 508  A 19 19 0 0 1 1199 489 L 1676 489  A 19 19 0 0 1 1695 508 L 1695 547  A 19 19 0 0 1 1676 566 L 1199 566  A 19 19 0 0 1 1180 547 L 1180 508  Z " fill-rule="nonzero" fill="#ffffff" stroke="none" />
  <path d="M 1179.5 508  A 19.5 19.5 0 0 1 1199 488.5 L 1676 488.5  A 19.5 19.5 0 0 1 1695.5 508 L 1695.5 547  A 19.5 19.5 0 0 1 1676 566.5 L 1199 566.5  A 19.5 19.5 0 0 1 1179.5 547 L 1179.5 508  Z " stroke-width="1" stroke="#8c8c8c" fill="none" stroke-opacity="0.352941176470588" />
</svg>