<?xml version="1.0" encoding="utf-8"?>
<svg version="1.1" xmlns:xlink="http://www.w3.org/1999/xlink" width="339px" height="126px" xmlns="http://www.w3.org/2000/svg">
  <g transform="matrix(1 0 0 1 -1328 -333 )">
    <path d="M 1329 353  A 19 19 0 0 1 1348 334 L 1647 334  A 19 19 0 0 1 1666 353 L 1666 439  A 19 19 0 0 1 1647 458 L 1348 458  A 19 19 0 0 1 1329 439 L 1329 353  Z " fill-rule="nonzero" fill="#ffffff" stroke="none" />
    <path d="M 1328.5 353  A 19.5 19.5 0 0 1 1348 333.5 L 1647 333.5  A 19.5 19.5 0 0 1 1666.5 353 L 1666.5 439  A 19.5 19.5 0 0 1 1647 458.5 L 1348 458.5  A 19.5 19.5 0 0 1 1328.5 439 L 1328.5 353  Z " stroke-width="1" stroke="#8c8c8c" fill="none" stroke-opacity="0.352941176470588" />
  </g>
</svg>