<?xml version="1.0" encoding="utf-8"?>
<svg version="1.1" xmlns:xlink="http://www.w3.org/1999/xlink" width="18px" height="20px" xmlns="http://www.w3.org/2000/svg">
  <g transform="matrix(1 0 0 1 -53 -676 )">
    <path d="M 17.40625 9.12109375  C 17.8020833333334 9.36848958333333  18 9.66145833333333  18 10  C 18 10.3385416666667  17.8020833333334 10.6315104166667  17.40625 10.87890625  L 3.40625 19.62890625  C 3.01041666666663 19.8763020833333  2.54166666666663 20  2 20  C 1.45833333333337 20  0.989583333333371 19.8763020833333  0.59375 19.62890625  C 0.197916666666629 19.3815104166667  0 19.0885416666667  0 18.75  L 0 7  L 0 1.25  C 0 0.911458333333329  0.197916666666629 0.618489583333329  0.59375 0.37109375  C 0.989583333333371 0.123697916666664  1.45833333333337 0  2 0  C 2.54166666666663 0  3.01041666666663 0.123697916666664  3.40625 0.37109375  L 17.40625 9.12109375  Z " fill-rule="nonzero" fill="#333333" stroke="none" transform="matrix(1 0 0 1 53 676 )" />
  </g>
</svg>