<?xml version="1.0" encoding="utf-8"?>
<svg version="1.1" xmlns:xlink="http://www.w3.org/1999/xlink" width="83px" height="32px" xmlns="http://www.w3.org/2000/svg">
  <g transform="matrix(1 0 0 1 -1116 -166 )">
    <path d="M 1118 171  A 3 3 0 0 1 1121 168 L 1194 168  A 3 3 0 0 1 1197 171 L 1197 193  A 3 3 0 0 1 1194 196 L 1121 196  A 3 3 0 0 1 1118 193 L 1118 171  Z " fill-rule="nonzero" fill="#ffffff" stroke="none" />
    <path d="M 1117 171  A 4 4 0 0 1 1121 167 L 1194 167  A 4 4 0 0 1 1198 171 L 1198 193  A 4 4 0 0 1 1194 197 L 1121 197  A 4 4 0 0 1 1117 193 L 1117 171  Z " stroke-width="2" stroke="#a408bf" fill="none" stroke-opacity="0.996078431372549" />
  </g>
</svg>