<?xml version="1.0" encoding="utf-8"?>
<svg version="1.1" xmlns:xlink="http://www.w3.org/1999/xlink" width="11px" height="11px" viewBox="168 317  11 11" xmlns="http://www.w3.org/2000/svg">
  <path d="M 169 321  A 3 3 0 0 1 172 318 L 175 318  A 3 3 0 0 1 178 321 L 178 324  A 3 3 0 0 1 175 327 L 172 327  A 3 3 0 0 1 169 324 L 169 321  Z " fill-rule="nonzero" fill="#f0f0f0" stroke="none" />
  <path d="M 168.5 321  A 3.5 3.5 0 0 1 172 317.5 L 175 317.5  A 3.5 3.5 0 0 1 178.5 321 L 178.5 324  A 3.5 3.5 0 0 1 175 327.5 L 172 327.5  A 3.5 3.5 0 0 1 168.5 324 L 168.5 321  Z " stroke-width="1" stroke="#32bd2f" fill="none" stroke-opacity="0.949019607843137" />
  <path d="M 170.357142857143 322.5  L 172.714285714286 324.857142857143  " stroke-width="2.35714285714286" stroke="#32bd2f" fill="none" stroke-opacity="0.949019607843137" />
  <path d="M 172.714285714286 324.857142857143  L 176.642857142857 319.357142857143  " stroke-width="2.35714285714286" stroke="#32bd2f" fill="none" stroke-opacity="0.949019607843137" />
</svg>