<?xml version="1.0" encoding="utf-8"?>
<svg version="1.1" xmlns:xlink="http://www.w3.org/1999/xlink" width="11px" height="11px" viewBox="168 348  11 11" xmlns="http://www.w3.org/2000/svg">
  <path d="M 169 352  A 3 3 0 0 1 172 349 L 175 349  A 3 3 0 0 1 178 352 L 178 355  A 3 3 0 0 1 175 358 L 172 358  A 3 3 0 0 1 169 355 L 169 352  Z " fill-rule="nonzero" fill="#f0f0f0" stroke="none" />
  <path d="M 168.5 352  A 3.5 3.5 0 0 1 172 348.5 L 175 348.5  A 3.5 3.5 0 0 1 178.5 352 L 178.5 355  A 3.5 3.5 0 0 1 175 358.5 L 172 358.5  A 3.5 3.5 0 0 1 168.5 355 L 168.5 352  Z " stroke-width="1" stroke="#32bd2f" fill="none" stroke-opacity="0.949019607843137" />
</svg>