<?xml version="1.0" encoding="utf-8"?>
<svg version="1.1" xmlns:xlink="http://www.w3.org/1999/xlink" width="12px" height="12px" viewBox="503 103  12 12" xmlns="http://www.w3.org/2000/svg">
  <path d="M 509 103  C 512.36 103  515 105.64  515 109  C 515 112.36  512.36 115  509 115  C 505.64 115  503 112.36  503 109  C 503 105.64  505.64 103  509 103  Z " fill-rule="nonzero" fill="#f0f0f0" stroke="none" />
  <path d="M 509 103.5  C 512.08 103.5  514.5 105.92  514.5 109  C 514.5 112.08  512.08 114.5  509 114.5  C 505.92 114.5  503.5 112.08  503.5 109  C 503.5 105.92  505.92 103.5  509 103.5  Z " stroke-width="1" stroke="#797979" fill="none" />
  <path d="M 509 112  C 507.32 112  506 110.68  506 109  C 506 107.32  507.32 106  509 106  C 510.68 106  512 107.32  512 109  C 512 110.68  510.68 112  509 112  " fill-rule="nonzero" fill="#797979" stroke="none" />
</svg>