<?xml version="1.0" encoding="utf-8"?>
<svg version="1.1" xmlns:xlink="http://www.w3.org/1999/xlink" width="12px" height="12px" viewBox="503 147  12 12" xmlns="http://www.w3.org/2000/svg">
  <path d="M 509 147  C 512.36 147  515 149.64  515 153  C 515 156.36  512.36 159  509 159  C 505.64 159  503 156.36  503 153  C 503 149.64  505.64 147  509 147  Z " fill-rule="nonzero" fill="#ffffff" stroke="none" />
  <path d="M 509 147.5  C 512.08 147.5  514.5 149.92  514.5 153  C 514.5 156.08  512.08 158.5  509 158.5  C 505.92 158.5  503.5 156.08  503.5 153  C 503.5 149.92  505.92 147.5  509 147.5  Z " stroke-width="1" stroke="#797979" fill="none" />
  <path d="M 509 156  C 507.32 156  506 154.68  506 153  C 506 151.32  507.32 150  509 150  C 510.68 150  512 151.32  512 153  C 512 154.68  510.68 156  509 156  " fill-rule="nonzero" fill="#797979" stroke="none" />
</svg>