<?xml version="1.0" encoding="utf-8"?>
<svg version="1.1" xmlns:xlink="http://www.w3.org/1999/xlink" width="270px" height="64px" viewBox="347 412  270 64" xmlns="http://www.w3.org/2000/svg">
  <path d="M 348 422  A 9 9 0 0 1 357 413 L 607 413  A 9 9 0 0 1 616 422 L 616 466  A 9 9 0 0 1 607 475 L 357 475  A 9 9 0 0 1 348 466 L 348 422  Z " fill-rule="nonzero" fill="#ffffff" stroke="none" />
  <path d="M 347.5 422  A 9.5 9.5 0 0 1 357 412.5 L 607 412.5  A 9.5 9.5 0 0 1 616.5 422 L 616.5 466  A 9.5 9.5 0 0 1 607 475.5 L 357 475.5  A 9.5 9.5 0 0 1 347.5 466 L 347.5 422  Z " stroke-width="1" stroke="#999999" fill="none" stroke-opacity="0.2" />
</svg>