<?xml version="1.0" encoding="utf-8"?>
<svg version="1.1" xmlns:xlink="http://www.w3.org/1999/xlink" width="178px" height="35px" viewBox="90 117  178 35" xmlns="http://www.w3.org/2000/svg">
  <path d="M 91 127  A 9 9 0 0 1 100 118 L 258 118  A 9 9 0 0 1 267 127 L 267 142  A 9 9 0 0 1 258 151 L 100 151  A 9 9 0 0 1 91 142 L 91 127  Z " fill-rule="nonzero" fill="#f0f0f0" stroke="none" />
  <path d="M 90.5 127  A 9.5 9.5 0 0 1 100 117.5 L 258 117.5  A 9.5 9.5 0 0 1 267.5 127 L 267.5 142  A 9.5 9.5 0 0 1 258 151.5 L 100 151.5  A 9.5 9.5 0 0 1 90.5 142 L 90.5 127  Z " stroke-width="1" stroke="#999999" fill="none" stroke-opacity="0.203921568627451" />
</svg>