<?xml version="1.0" encoding="utf-8"?>
<svg version="1.1" xmlns:xlink="http://www.w3.org/1999/xlink" width="12px" height="10px" xmlns="http://www.w3.org/2000/svg">
  <g transform="matrix(1 0 0 1 -624 -40 )">
    <path d="M 5.13125 6.02498580352073  C 5.44375 5.74105621805792  5.6 5.39844785159947  5.6 4.99716070414537  C 5.6 4.59587355669127  5.44375 4.25326519023282  5.13125 3.96933560477002  C 4.81875 3.68540601930721  4.44166666666667 3.54344122657581  4 3.54344122657581  C 3.55833333333333 3.54344122657581  3.18125 3.68540601930721  2.86875 3.96933560477002  C 2.55625 4.25326519023282  2.4 4.59587355669127  2.4 4.99716070414537  C 2.4 5.39844785159947  2.55625 5.74105621805792  2.86875 6.02498580352073  C 3.18125 6.30891538898353  3.55833333333333 6.45088018171494  4 6.45088018171494  C 4.44166666666667 6.45088018171494  4.81875 6.30891538898353  5.13125 6.02498580352073  Z M 10.165625 8.41851220897217  C 10.321875 8.27654741624077  10.4 8.10524323301155  10.4 7.9045996592845  C 10.4 7.70774181336362  10.3208333333333 7.53738406208594  10.1625 7.39352640545145  C 10.0041666666667 7.24966874881696  9.81666666666667 7.17773992049972  9.6 7.17773992049972  C 9.38333333333333 7.17773992049972  9.19583333333333 7.24966874881696  9.0375 7.39352640545145  C 8.87916666666667 7.53738406208594  8.8 7.70774181336362  8.8 7.9045996592845  C 8.8 8.10524323301155  8.878125 8.27654741624077  9.034375 8.41851220897217  C 9.190625 8.56047700170358  9.37916666666667 8.63145939806928  9.6 8.63145939806928  C 9.82083333333333 8.63145939806928  10.009375 8.56047700170358  10.165625 8.41851220897217  Z M 10.165625 2.60363429869392  C 10.321875 2.46166950596252  10.4 2.2903653227333  10.4 2.08972174900625  C 10.4 1.89286390308537  10.3208333333333 1.72250615180768  10.1625 1.5786484951732  C 10.0041666666667 1.43479083853871  9.81666666666667 1.36286201022147  9.6 1.36286201022147  C 9.38333333333333 1.36286201022147  9.19583333333333 1.43479083853871  9.0375 1.5786484951732  C 8.87916666666667 1.72250615180768  8.8 1.89286390308537  8.8 2.08972174900625  C 8.8 2.2903653227333  8.878125 2.46166950596252  9.034375 2.60363429869392  C 9.190625 2.74559909142533  9.37916666666667 2.81658148779103  9.6 2.81658148779103  C 9.82083333333333 2.81658148779103  10.009375 2.74559909142533  10.165625 2.60363429869392  Z M 7.95625 4.36967632027257  C 7.98541666666667 4.40185500662502  8 4.43876585273519  8 4.48040885860307  L 8 5.53094832481545  C 8 5.56880560287715  7.98541666666667 5.60571644898732  7.95625 5.64168086314594  C 7.92708333333333 5.67764527730456  7.89375 5.69752034828696  7.85625 5.70130607609313  L 6.8875 5.83759227711528  C 6.84166666666667 5.97009275033125  6.775 6.11395040696574  6.6875 6.26916524701874  C 6.82916666666667 6.45088018171494  7.01666666666667 6.66855953056975  7.25 6.92220329358319  C 7.27916666666667 6.96384629945107  7.29375 7.00170357751278  7.29375 7.03577512776831  C 7.29375 7.08120386144236  7.27916666666667 7.11716827560099  7.25 7.14366837024418  C 7.15416666666667 7.2572402044293  6.98229166666667 7.42665152375544  6.734375 7.6519023282226  C 6.48645833333333 7.87715313268976  6.32291666666667 7.98977853492334  6.24375 7.98977853492334  C 6.19791666666667 7.98977853492334  6.15416666666667 7.97652848760174  6.1125 7.95002839295855  L 5.39375 7.4389551391255  C 5.23958333333333 7.51088396744274  5.07916666666667 7.56956274843839  4.9125 7.61499148211244  C 4.86666666666667 8.02385008517888  4.81875 8.31724399015711  4.76875 8.49517319704713  C 4.73958333333333 8.58603066439523  4.67708333333333 8.63145939806928  4.58125 8.63145939806928  L 3.41875 8.63145939806928  C 3.37291666666667 8.63145939806928  3.33125 8.61726291879614  3.29375 8.58886996024986  C 3.25625 8.56047700170358  3.23541666666667 8.52735188339958  3.23125 8.48949460533788  L 3.0875 7.62067007382169  C 2.94583333333333 7.58281279575998  2.78958333333333 7.52413401476434  2.61875 7.44463373083475  L 1.88125 7.95002839295855  C 1.85208333333333 7.97652848760174  1.81041666666667 7.98977853492334  1.75625 7.98977853492334  C 1.71041666666667 7.98977853492334  1.66666666666667 7.97463562369866  1.625 7.94434980124929  C 1.025 7.44084800302858  0.725 7.13798977853492  0.725 7.03577512776831  C 0.725 7.00170357751278  0.739583333333333 6.96573916335415  0.76875 6.92788188529245  C 0.810416666666667 6.87488169600606  0.895833333333333 6.77455990914253  1.025 6.62691652470187  C 1.15416666666667 6.47927314026122  1.25208333333333 6.36380844217301  1.31875 6.28052243043725  C 1.22291666666667 6.11395040696574  1.15 5.95873556691274  1.1 5.81487791027825  L 0.15 5.6785917092561  C 0.108333333333333 5.67480598144993  0.0729166666666667 5.65682377437062  0.04375 5.62464508801817  C 0.0145833333333333 5.59246640166572  0 5.55555555555556  0 5.51391254968768  L 0 4.4633730834753  C 0 4.42551580541359  0.0145833333333333 4.38860495930343  0.04375 4.3526405451448  C 0.0729166666666667 4.31667613098618  0.10625 4.29680106000379  0.14375 4.29301533219761  L 1.1125 4.15672913117547  C 1.15833333333333 4.02422865795949  1.225 3.880371001325  1.3125 3.725156161272  C 1.17083333333333 3.54344122657581  0.983333333333333 3.32576187772099  0.75 3.07211811470755  C 0.720833333333333 3.03047510883967  0.70625 2.99261783077797  0.70625 2.95854628052243  C 0.70625 2.91311754684838  0.720833333333333 2.87526026878667  0.75 2.84497444633731  C 0.841666666666667 2.73140261215219  1.0125 2.56293772477759  1.2625 2.33957978421351  C 1.5125 2.11622184364944  1.67708333333333 2.00454287336741  1.75625 2.00454287336741  C 1.80208333333333 2.00454287336741  1.84583333333333 2.017792920689  1.8875 2.0442930153322  L 2.60625 2.55536626916525  C 2.74791666666667 2.48722316865417  2.90833333333333 2.42665152375544  3.0875 2.37365133446905  C 3.13333333333333 1.96479273140261  3.18125 1.67329169032746  3.23125 1.49914821124361  C 3.26041666666667 1.40829074389551  3.32291666666667 1.36286201022147  3.41875 1.36286201022147  L 4.58125 1.36286201022147  C 4.62708333333333 1.36286201022147  4.66875 1.37705848949461  4.70625 1.40545144804089  C 4.74375 1.43384440658717  4.76458333333333 1.46696952489116  4.76875 1.50482680295287  L 4.9125 2.37365133446905  C 5.05416666666667 2.41150861253076  5.21041666666667 2.47018739352641  5.38125 2.54968767745599  L 6.11875 2.0442930153322  C 6.15208333333333 2.017792920689  6.19375 2.00454287336741  6.24375 2.00454287336741  C 6.28958333333333 2.00454287336741  6.33333333333333 2.01968578459209  6.375 2.04997160704145  C 6.975 2.55347340526216  7.275 2.85633162975582  7.275 2.95854628052243  C 7.275 2.9888321029718  7.26041666666667 3.02479651713042  7.23125 3.0664395229983  C 7.18125 3.12701116789703  7.09375 3.22922581866364  6.96875 3.37308347529813  C 6.84375 3.51694113193261  6.75 3.63051296611774  6.6875 3.71379897785349  C 6.78333333333334 3.89551391254969  6.85416666666667 4.05072875260269  6.9 4.17944349801249  L 7.85 4.31005110732538  C 7.89166666666667 4.31762256293772  7.92708333333333 4.33749763392012  7.95625 4.36967632027257  Z M 11.06875 7.33106189664963  C 11.6895833333333 7.38784781374219  12 7.44652659473784  12 7.50709823963657  L 12 8.30210107893242  C 12 8.36267272383116  11.6895833333333 8.4213515048268  11.06875 8.47813742191936  C 11.01875 8.58035207268597  10.95625 8.67878099564641  10.88125 8.77342419080068  C 11.09375 9.20121143289797  11.2 9.46242665152375  11.2 9.55706984667802  C 11.2 9.57221275790271  11.1916666666667 9.5854628052243  11.175 9.59681998864282  C 10.6666666666667 9.86560666288094  10.4083333333333 10  10.4 10  C 10.3666666666667 10  10.2708333333333 9.91103539655499  10.1125 9.73310618966496  C 9.95416666666667 9.55517698277494  9.84583333333333 9.42646223736513  9.7875 9.34696195343555  C 9.70416666666667 9.35453340904789  9.64166666666667 9.35831913685406  9.6 9.35831913685406  C 9.55833333333333 9.35831913685406  9.49583333333334 9.35453340904789  9.4125 9.34696195343555  C 9.35416666666667 9.42646223736513  9.24583333333333 9.55517698277494  9.0875 9.73310618966496  C 8.92916666666667 9.91103539655499  8.83333333333333 10  8.8 10  C 8.79166666666667 10  8.53333333333333 9.86560666288094  8.025 9.59681998864282  C 8.00833333333333 9.5854628052243  8 9.57221275790271  8 9.55706984667802  C 8 9.46242665152375  8.10625 9.20121143289797  8.31875 8.77342419080068  C 8.24375 8.67878099564641  8.18125 8.58035207268597  8.13125 8.47813742191936  C 7.51041666666667 8.4213515048268  7.2 8.36267272383116  7.2 8.30210107893242  L 7.2 7.50709823963657  C 7.2 7.44652659473784  7.51041666666667 7.38784781374219  8.13125 7.33106189664963  C 8.18541666666667 7.22127579027068  8.24791666666667 7.12284686731024  8.31875 7.03577512776831  C 8.10625 6.60798788567102  8 6.34677266704524  8 6.25212947189097  C 8 6.23698656066629  8.00833333333333 6.22373651334469  8.025 6.21237932992618  C 8.04166666666667 6.20480787431384  8.11458333333334 6.16695059625213  8.24375 6.09880749574106  C 8.37291666666667 6.03066439522998  8.49583333333333 5.96630702252508  8.6125 5.90573537762635  C 8.72916666666667 5.84516373272762  8.79166666666667 5.81487791027825  8.8 5.81487791027825  C 8.83333333333333 5.81487791027825  8.92916666666667 5.90289608177172  9.0875 6.07893242475866  C 9.24583333333333 6.2549687677456  9.35416666666667 6.38273708120386  9.4125 6.46223736513345  C 9.49583333333334 6.45466590952111  9.55833333333333 6.45088018171494  9.6 6.45088018171494  C 9.64166666666667 6.45088018171494  9.70416666666667 6.45466590952111  9.7875 6.46223736513345  C 10 6.19345069089532  10.1916666666667 5.98144993374976  10.3625 5.82623509369676  L 10.4 5.81487791027825  C 10.4166666666667 5.81487791027825  10.675 5.94737838349423  11.175 6.21237932992618  C 11.1916666666667 6.22373651334469  11.2 6.23698656066629  11.2 6.25212947189097  C 11.2 6.34677266704524  11.09375 6.60798788567102  10.88125 7.03577512776831  C 10.9520833333333 7.12284686731024  11.0145833333333 7.22127579027068  11.06875 7.33106189664963  Z M 11.06875 1.51618398637138  C 11.6895833333333 1.57296990346394  12 1.63164868445959  12 1.69222032935832  L 12 2.48722316865417  C 12 2.5477948135529  11.6895833333333 2.60647359454855  11.06875 2.66325951164111  C 11.01875 2.76547416240772  10.95625 2.86390308536816  10.88125 2.95854628052243  C 11.09375 3.38633352261972  11.2 3.6475487412455  11.2 3.74219193639977  C 11.2 3.75733484762446  11.1916666666667 3.77058489494605  11.175 3.78194207836457  C 10.6666666666667 4.05072875260269  10.4083333333333 4.18512208972175  10.4 4.18512208972175  C 10.3666666666667 4.18512208972175  10.2708333333333 4.09615748627674  10.1125 3.91822827938671  C 9.95416666666667 3.74029907249669  9.84583333333333 3.61158432708688  9.7875 3.5320840431573  C 9.70416666666667 3.53965549876964  9.64166666666667 3.54344122657581  9.6 3.54344122657581  C 9.55833333333333 3.54344122657581  9.49583333333334 3.53965549876964  9.4125 3.5320840431573  C 9.35416666666667 3.61158432708688  9.24583333333333 3.74029907249669  9.0875 3.91822827938671  C 8.92916666666667 4.09615748627674  8.83333333333333 4.18512208972175  8.8 4.18512208972175  C 8.79166666666667 4.18512208972175  8.53333333333333 4.05072875260269  8.025 3.78194207836457  C 8.00833333333333 3.77058489494605  8 3.75733484762446  8 3.74219193639977  C 8 3.6475487412455  8.10625 3.38633352261972  8.31875 2.95854628052243  C 8.24375 2.86390308536816  8.18125 2.76547416240772  8.13125 2.66325951164111  C 7.51041666666667 2.60647359454855  7.2 2.5477948135529  7.2 2.48722316865417  L 7.2 1.69222032935832  C 7.2 1.63164868445959  7.51041666666667 1.57296990346394  8.13125 1.51618398637138  C 8.18541666666667 1.40639787999243  8.24791666666667 1.30796895703199  8.31875 1.22089721749006  C 8.10625 0.793109975392768  8 0.531894756766987  8 0.43725156161272  C 8 0.422108650388037  8.00833333333333 0.40885860306644  8.025 0.397501419647928  C 8.04166666666667 0.389929964035585  8.11458333333334 0.352072685973879  8.24375 0.283929585462805  C 8.37291666666667 0.215786484951732  8.49583333333333 0.151429112246828  8.6125 0.0908574673480977  C 8.72916666666667 0.0302858224493652  8.79166666666667 0  8.8 0  C 8.83333333333333 0  8.92916666666667 0.0880181714934691  9.0875 0.264054514480409  C 9.24583333333333 0.440090857467348  9.35416666666667 0.567859170925611  9.4125 0.647359454855196  C 9.49583333333334 0.639787999242853  9.55833333333333 0.636002271436684  9.6 0.636002271436684  C 9.64166666666667 0.636002271436684  9.70416666666667 0.639787999242853  9.7875 0.647359454855196  C 10 0.378572780617072  10.1916666666667 0.166572023471512  10.3625 0.0113571834185122  L 10.4 0  C 10.4166666666667 0  10.675 0.132500473215975  11.175 0.397501419647928  C 11.1916666666667 0.40885860306644  11.2 0.422108650388037  11.2 0.43725156161272  C 11.2 0.531894756766987  11.09375 0.793109975392768  10.88125 1.22089721749006  C 10.9520833333333 1.30796895703199  11.0145833333333 1.40639787999243  11.06875 1.51618398637138  Z " fill-rule="nonzero" fill="#2c00ff" stroke="none" fill-opacity="0.996078431372549" transform="matrix(1 0 0 1 624 40 )" />
  </g>
</svg>